<?xml version="1.0" encoding="UTF-8" standalone="no"?>
<!-- Created with Inkscape (http://www.inkscape.org/) -->

<svg
   xmlns:dc="http://purl.org/dc/elements/1.1/"
   xmlns:cc="http://creativecommons.org/ns#"
   xmlns:rdf="http://www.w3.org/1999/02/22-rdf-syntax-ns#"
   xmlns:svg="http://www.w3.org/2000/svg"
   xmlns="http://www.w3.org/2000/svg"
   xmlns:sodipodi="http://sodipodi.sourceforge.net/DTD/sodipodi-0.dtd"
   xmlns:inkscape="http://www.inkscape.org/namespaces/inkscape"
   id="svg3336"
   version="1.1"
   inkscape:version="0.91 r13725"
   xml:space="preserve"
   width="1052.3625"
   height="744.09497"
   viewBox="0 0 1052.3625 744.09497"
   sodipodi:docname="Fleur_fruitCouleur.svg"
   inkscape:export-filename="C:\Users\Accessimap\Desktop\Matériel expé\fleurcouleuràcompléter.png"
   inkscape:export-xdpi="200"
   inkscape:export-ydpi="200"><metadata
     id="metadata3342"><rdf:RDF><cc:Work
         rdf:about=""><dc:format>image/svg+xml</dc:format><dc:type
           rdf:resource="http://purl.org/dc/dcmitype/StillImage" /><dc:title /></cc:Work></rdf:RDF></metadata><defs
     id="defs3340"><clipPath
       clipPathUnits="userSpaceOnUse"
       id="clipPath3350"><path
         d="m 0,595.276 841.89,0 L 841.89,0 0,0 0,595.276 Z"
         id="path3352"
         inkscape:connector-curvature="0" /></clipPath><clipPath
       clipPathUnits="userSpaceOnUse"
       id="clipPath3368"><path
         d="m -56.6743,5.55322 113.3491,0 0,-11.10595 -113.3491,0 0,11.10595 z"
         id="path3370"
         inkscape:connector-curvature="0" /></clipPath><pattern
       patternTransform="translate(-673.3115,-147.2041)"
       patternUnits="userSpaceOnUse"
       x="0"
       y="0"
       width="5.9189"
       height="5.6631"
       id="pattern3564"><path
         d="m 5.794,0.006 -5.683,0 0,5.65 5.683,0 0,-5.65 z"
         style="fill:#ffffff;fill-opacity:1;fill-rule:nonzero;stroke:none"
         id="path3566" /><g
         transform="translate(0.125,0)"
         id="g3568"><path
           d="M 0,0 0,5.663"
           style="fill:#231f20;fill-opacity:1;fill-rule:nonzero;stroke:#231f20;stroke-opacity:1;stroke-width:0.25;stroke-linecap:butt;stroke-linejoin:miter;stroke-miterlimit:4;stroke-dasharray:none"
           id="path3570" /></g><g
         transform="translate(5.7939,0)"
         id="g3572"><path
           d="M 0,0 0,5.663"
           style="fill:#231f20;fill-opacity:1;fill-rule:nonzero;stroke:#231f20;stroke-opacity:1;stroke-width:0.25;stroke-linecap:butt;stroke-linejoin:miter;stroke-miterlimit:4;stroke-dasharray:none"
           id="path3574" /></g></pattern><pattern
       patternTransform="translate(-673.3115,-147.2041)"
       patternUnits="userSpaceOnUse"
       x="0"
       y="0"
       width="5.9189"
       height="5.6631"
       id="pattern3584"><path
         d="m 5.794,0.006 -5.683,0 0,5.65 5.683,0 0,-5.65 z"
         style="fill:#ffffff;fill-opacity:1;fill-rule:nonzero;stroke:none"
         id="path3586" /><g
         transform="translate(0.125,0)"
         id="g3588"><path
           d="M 0,0 0,5.663"
           style="fill:#231f20;fill-opacity:1;fill-rule:nonzero;stroke:#231f20;stroke-opacity:1;stroke-width:0.25;stroke-linecap:butt;stroke-linejoin:miter;stroke-miterlimit:4;stroke-dasharray:none"
           id="path3590" /></g><g
         transform="translate(5.7939,0)"
         id="g3592"><path
           d="M 0,0 0,5.663"
           style="fill:#231f20;fill-opacity:1;fill-rule:nonzero;stroke:#231f20;stroke-opacity:1;stroke-width:0.25;stroke-linecap:butt;stroke-linejoin:miter;stroke-miterlimit:4;stroke-dasharray:none"
           id="path3594" /></g></pattern></defs><sodipodi:namedview
     pagecolor="#ffffff"
     bordercolor="#666666"
     borderopacity="1"
     objecttolerance="10"
     gridtolerance="10"
     guidetolerance="10"
     inkscape:pageopacity="0"
     inkscape:pageshadow="2"
     inkscape:window-width="1366"
     inkscape:window-height="706"
     id="namedview3338"
     showgrid="false"
     inkscape:zoom="0.57875767"
     inkscape:cx="135.26019"
     inkscape:cy="350.3677"
     inkscape:window-x="-8"
     inkscape:window-y="-8"
     inkscape:window-maximized="1"
     inkscape:current-layer="g3344" /><g
     id="g3344"
     inkscape:groupmode="layer"
     inkscape:label="Fleur_fruitC"
     transform="matrix(1.25,0,0,-1.25,0,744.095)"><text
       transform="scale(1,-1)"
       style="font-variant:normal;font-weight:normal;font-stretch:normal;font-size:18px;font-family:Verdana;-inkscape-font-specification:Verdana;writing-mode:lr-tb;fill:#231f20;fill-opacity:1;fill-rule:nonzero;stroke:none"
       id="text3414"
       x="221.06841"
       y="-417.6304"><tspan
         x="221.06841"
         y="-417.6304"
         sodipodi:role="line"
         id="tspan3416" /><tspan
         x="221.06841"
         sodipodi:role="line"
         id="tspan3418"
         y="-395.1304" /><tspan
         sodipodi:role="line"
         id="tspan3420"
         x="221.06841"
         y="-372.6304" /><tspan
         x="221.06841"
         sodipodi:role="line"
         id="tspan3432"
         y="-350.1304" /></text>
<g
       id="g3494"
       transform="translate(227.9072,163.8623)" /><g
       id="g3498"
       transform="translate(270.9102,171.7363)"><path
         d="m 0,0 c 5.938,42.481 16.932,84.968 33.538,124.531 8.351,19.895 19.757,49.943 36.921,64.022 6.262,5.134 16.598,5.359 24.037,5.124 26.638,-0.838 16.792,-5.865 15.223,-26.103 -2.901,-37.373 10.324,-65.916 -4.586,-103.883 C 83.076,7.536 52.836,-5.72 0.461,-19.886 0.319,-13.714 -1.492,-5.931 0,0"
         style="fill:#f399ac;fill-opacity:1;fill-rule:nonzero;stroke:#231f20;stroke-width:1.41700006;stroke-linecap:butt;stroke-linejoin:miter;stroke-miterlimit:4;stroke-dasharray:none;stroke-opacity:1"
         id="path3500"
         inkscape:connector-curvature="0" /></g><path
       inkscape:connector-curvature="0"
       id="path3504"
       style="fill:#f399ac;fill-opacity:1;fill-rule:nonzero;stroke:#231f20;stroke-width:1.41700006;stroke-linecap:butt;stroke-linejoin:miter;stroke-miterlimit:4;stroke-dasharray:none;stroke-opacity:1"
       d="m 221.7188,171.1797 c -5.938,42.481 -16.932,84.968 -33.539,124.531 -8.351,19.895 -19.757,49.943 -36.923,64.022 -6.261,5.134 -16.595,5.359 -24.037,5.125 -26.637,-0.84 -16.791,-5.866 -15.221,-26.104 2.899,-37.372 -10.323,-65.917 4.588,-103.882 22.054,-56.159 52.294,-69.412 104.669,-83.578 0.143,6.169 1.953,13.955 0.463,19.886" /><g
       id="g3506"
       transform="matrix(1,0,0,1.5107884,235.9277,150.54466)"><path
         d="m 0,0 20.252,0.244 c 0,0 -7.611,-17.543 -1.895,-41.127 l -19.896,0.244 c 0,0 8.707,20.461 1.539,40.639"
         style="fill:#22813d;fill-opacity:1;fill-rule:nonzero;stroke:none"
         id="path3508"
         inkscape:connector-curvature="0" /></g><g
       id="g3510"
       transform="matrix(0.98237094,0,0,1.520263,236.09282,151.04388)"><path
         d="m 0,0 20.252,0.244 c 0,0 -7.611,-17.543 -1.895,-41.127 l -19.896,0.244 c 0,0 8.707,20.461 1.539,40.639 z"
         style="fill:none;stroke:#231f20;stroke-width:1.41700006;stroke-linecap:butt;stroke-linejoin:miter;stroke-miterlimit:4;stroke-dasharray:none;stroke-opacity:1"
         id="path3512"
         inkscape:connector-curvature="0" /></g><g
       id="g3514"
       transform="translate(229.6719,225.0605)"><path
         d="m 0,0 c 0.083,14.169 3.194,28.578 2.237,42.688 -0.948,13.976 -7.82,27.54 -15.154,39.182 -12.649,20.078 -28.51,39.34 -26.39,64.532 0.305,3.626 -21.322,1.056 -21.904,-5.869 -2.112,-25.096 13.652,-44.576 26.389,-64.533 7.25,-11.357 13.126,-23.969 14.972,-37.419 0.989,-7.203 -0.236,-14.61 -0.86,-21.797 -0.655,-7.54 6.073481,-12.0732162 6.029481,-19.6432162 C -14.705519,-6.9942162 -0.04,-6.719 0,0"
         style="fill:#ffffff;fill-opacity:1;fill-rule:nonzero;stroke:none"
         id="path3516"
         inkscape:connector-curvature="0"
         sodipodi:nodetypes="cscccccccc" /></g><g
       id="g3518"
       transform="translate(200.2891,363.7158)"><path
         d="m 0,0 c -2.172,-2.722 -10.221,-0.799 -17.979,4.293 -7.76,5.092 -12.292,11.429 -10.12,14.152 2.171,2.721 10.221,0.797 17.98,-4.296 C -2.359,9.057 2.17,2.722 0,0"
         style="fill:#ffffff;fill-opacity:1;fill-rule:nonzero;stroke:none"
         id="path3520"
         inkscape:connector-curvature="0" /></g><g
       id="g3522"
       transform="translate(200.2891,363.7158)"><path
         d="m 0,0 c -2.172,-2.722 -10.221,-0.799 -17.979,4.293 -7.76,5.092 -12.292,11.429 -10.12,14.152 2.171,2.721 10.221,0.797 17.98,-4.296 C -2.359,9.057 2.17,2.722 0,0 Z"
         style="fill:none;stroke:#ffffff;stroke-width:11.33899975;stroke-linecap:butt;stroke-linejoin:miter;stroke-miterlimit:4;stroke-dasharray:none;stroke-opacity:1"
         id="path3524"
         inkscape:connector-curvature="0" /></g><g
       id="g3526"
       transform="translate(221.4873,222.3584)"><path
         d="m 0,0 c 0.041,6.948 0.47,13.866 1.036,20.789 0.557,6.807 1.755,13.803 1.291,20.64 -0.937,13.803 -6.68,27.008 -13.819,38.704 -12.671,20.762 -29.999,40.319 -27.815,66.269 0.23,2.738 -5.337,1.896 -5.535,-0.465 -2.048,-24.342 12.337,-43.485 24.939,-62.825 7.557,-11.598 13.873,-24.1 16.21,-37.867 C -2.4,37.629 -3.679,29.809 -4.341,22.188 -4.996,14.648 -5.491,7.105 -5.535,-0.465 -5.551,-3.245 -0.014,-2.342 0,0"
         style="fill:#912223;fill-opacity:1;fill-rule:nonzero;stroke:none"
         id="path3528"
         inkscape:connector-curvature="0" /></g><g
       id="g3530"
       transform="translate(200.2891,363.7158)"><path
         d="m 0,0 c -2.172,-2.722 -10.221,-0.799 -17.979,4.293 -7.76,5.092 -12.292,11.429 -10.12,14.152 2.171,2.721 10.221,0.797 17.98,-4.296 C -2.359,9.057 2.17,2.722 0,0"
         style="fill:#fccb06;fill-opacity:1;fill-rule:nonzero;stroke:none"
         id="path3532"
         inkscape:connector-curvature="0" /></g><g
       id="g3534"
       transform="translate(200.2891,363.7158)"><path
         d="m 0,0 c -2.172,-2.722 -10.221,-0.799 -17.979,4.293 -7.76,5.092 -12.292,11.429 -10.12,14.152 2.171,2.721 10.221,0.797 17.98,-4.296 C -2.359,9.057 2.17,2.722 0,0 Z"
         style="fill:none;stroke:#231f20;stroke-width:1.41700006;stroke-linecap:butt;stroke-linejoin:miter;stroke-miterlimit:4;stroke-dasharray:none;stroke-opacity:1"
         id="path3536"
         inkscape:connector-curvature="0" /></g><g
       id="g3538"
       transform="translate(282.1602,216.3496)"><path
         d="m -3.6117406,9.0293515 c -0.04,7.5300005 -2.8008271,16.2269135 -3.3678271,23.7359135 -0.597,7.899 4.1655677,5.656735 4.8445677,13.575735 1.221,14.24 7.713,27.778 14.968,39.847 13.359,22.228 28.645,43.242 26.467,70.5 -0.59,7.386 -22.586,2.663 -21.904,-5.869 C 19.484,124.676 2.404,103.958 -10.033,82.687 -16.97,70.822 -22.47,57.385 -24.058,43.667 c -0.82,-7.094 0.15,-14.305 0.74,-21.377 0.692,-8.303 1.352,-16.628 1.396,-24.964 0.026,-4.905 5.608,-5.335 9.501,-4.858 3.227,0.394 4.0176052,13.1122651 3.9936052,17.765265"
         style="fill:#ffffff;fill-opacity:1;fill-rule:nonzero;stroke:none"
         id="path3540"
         inkscape:connector-curvature="0"
         sodipodi:nodetypes="ccsccccccccc" /></g><g
       id="g3542"
       transform="translate(290.9316,362.5479)"><path
         d="m 0,0 c 2.172,-2.883 10.22,-0.846 17.979,4.548 7.758,5.394 12.292,12.107 10.12,14.991 -2.172,2.883 -10.222,0.846 -17.98,-4.55 C 2.359,9.594 -2.17,2.883 0,0"
         style="fill:#ffffff;fill-opacity:1;fill-rule:nonzero;stroke:none"
         id="path3544"
         inkscape:connector-curvature="0" /></g><g
       id="g3546"
       transform="translate(290.9316,362.5479)"><path
         d="m 0,0 c 2.172,-2.883 10.22,-0.846 17.979,4.548 7.758,5.394 12.292,12.107 10.12,14.991 -2.172,2.883 -10.222,0.846 -17.98,-4.55 C 2.359,9.594 -2.17,2.883 0,0 Z"
         style="fill:none;stroke:#ffffff;stroke-width:11.33899975;stroke-linecap:butt;stroke-linejoin:miter;stroke-miterlimit:4;stroke-dasharray:none;stroke-opacity:1"
         id="path3548"
         inkscape:connector-curvature="0" /></g><g
       id="g3550"
       transform="translate(273.9697,221.8066)"><path
         d="m 0,0 c -0.042,7.242 -0.488,14.458 -1.069,21.675 -0.62,7.721 -1.766,15.456 -1.029,23.201 1.342,14.104 8.299,27.501 15.705,39.312 12.807,20.424 27.771,39.923 25.669,65.361 -0.201,2.436 -5.69,1.126 -5.476,-1.467 C 35.958,121.97 18.63,101.629 5.854,80.675 -0.837,69.7 -6.007,57.242 -7.639,44.433 -8.501,37.666 -7.449,30.747 -6.865,24.001 -6.16,15.864 -5.588,7.728 -5.541,-0.443 -5.524,-3.271 0.014,-2.394 0,0"
         style="fill:#912223;fill-opacity:1;fill-rule:nonzero;stroke:none"
         id="path3552"
         inkscape:connector-curvature="0" /></g><g
       id="g3554"
       transform="translate(290.9316,363.3618)"><path
         d="m 0,0 c 2.172,-2.771 10.22,-0.813 17.979,4.37 7.758,5.184 12.292,11.635 10.12,14.406 -2.172,2.77 -10.222,0.812 -17.98,-4.372 C 2.359,9.22 -2.17,2.771 0,0"
         style="fill:#fccb06;fill-opacity:1;fill-rule:nonzero;stroke:none"
         id="path3556"
         inkscape:connector-curvature="0" /></g><g
       id="g3558"
       transform="translate(290.9316,363.3618)"><path
         d="m 0,0 c 2.172,-2.771 10.22,-0.813 17.979,4.37 7.758,5.184 12.292,11.635 10.12,14.406 -2.172,2.77 -10.222,0.812 -17.98,-4.372 C 2.359,9.22 -2.17,2.771 0,0 Z"
         style="fill:none;stroke:#231f20;stroke-width:1.41700006;stroke-linecap:butt;stroke-linejoin:miter;stroke-miterlimit:4;stroke-dasharray:none;stroke-opacity:1"
         id="path3560"
         inkscape:connector-curvature="0" /></g><g
       id="g3562"
       transform="translate(229.0693,153.6494)"><path
         d="m 0,0 c 0,0 -54.034,43.771 -161.683,26.947 0,0 -29.496,-9.673 0,-12.437 0,0 61.791,-7.6 90.515,-24.182 28.723,-16.585 67.712,-6.221 71.858,-2.074 L 0,0 Z"
         style="fill:url(#pattern3564);fill-opacity:1;fill-rule:nonzero;stroke:none"
         id="path3576"
         inkscape:connector-curvature="0" /></g><g
       id="g3578"
       transform="translate(229.0693,153.6494)"><path
         d="m 0,0 c 0,0 -54.034,43.771 -161.683,26.947 0,0 -29.496,-9.673 0,-12.437 0,0 61.791,-7.6 90.515,-24.182 28.723,-16.585 67.712,-6.221 71.858,-2.074 L 0,0 Z"
         style="fill:none;stroke:#ffffff;stroke-width:11.33899975;stroke-linecap:butt;stroke-linejoin:miter;stroke-miterlimit:4;stroke-dasharray:none;stroke-opacity:1"
         id="path3580"
         inkscape:connector-curvature="0" /></g><g
       id="g3582"
       transform="translate(263.6855,151.79)"><path
         d="m 0,0 c 0,0 54.034,43.771 161.684,26.946 0,0 29.496,-9.671 0,-12.436 0,0 -61.789,-7.599 -90.514,-24.183 C 42.445,-26.258 3.455,-15.895 -0.689,-11.748 L 0,0 Z"
         style="fill:url(#pattern3584);fill-opacity:1;fill-rule:nonzero;stroke:none"
         id="path3596"
         inkscape:connector-curvature="0" /></g><g
       id="g3598"
       transform="translate(263.6855,151.79)"><path
         d="m 0,0 c 0,0 54.034,43.771 161.684,26.946 0,0 29.496,-9.671 0,-12.436 0,0 -61.789,-7.599 -90.514,-24.183 C 42.445,-26.258 3.455,-15.895 -0.689,-11.748 L 0,0 Z"
         style="fill:none;stroke:#ffffff;stroke-width:11.33899975;stroke-linecap:butt;stroke-linejoin:miter;stroke-miterlimit:4;stroke-dasharray:none;stroke-opacity:1"
         id="path3600"
         inkscape:connector-curvature="0" /></g><g
       id="g3602"
       transform="translate(229.0693,153.6494)"><path
         d="m 0,0 c 0,0 -54.034,43.771 -161.683,26.947 0,0 -29.496,-9.673 0,-12.437 0,0 61.791,-7.6 90.515,-24.182 28.723,-16.585 67.712,-6.221 71.858,-2.074 L 0,0 Z"
         style="fill:#22813d;fill-opacity:1;fill-rule:nonzero;stroke:none"
         id="path3604"
         inkscape:connector-curvature="0" /></g><g
       id="g3606"
       transform="translate(229.0693,153.6494)"><path
         d="m 0,0 c 0,0 -54.034,43.771 -161.683,26.947 0,0 -29.496,-9.673 0,-12.437 0,0 61.791,-7.6 90.515,-24.182 28.723,-16.585 67.712,-6.221 71.858,-2.074 L 0,0 Z"
         style="fill:none;stroke:#231f20;stroke-width:1.41700006;stroke-linecap:butt;stroke-linejoin:miter;stroke-miterlimit:4;stroke-dasharray:none;stroke-opacity:1"
         id="path3608"
         inkscape:connector-curvature="0" /></g><g
       id="g3610"
       transform="translate(263.6855,151.79)"><path
         d="m 0,0 c 0,0 54.034,43.771 161.684,26.946 0,0 29.496,-9.671 0,-12.436 0,0 -61.789,-7.599 -90.514,-24.183 C 42.445,-26.258 3.455,-15.895 -0.689,-11.748 L 0,0 Z"
         style="fill:#22813d;fill-opacity:1;fill-rule:nonzero;stroke:none"
         id="path3612"
         inkscape:connector-curvature="0" /></g><g
       id="g3614"
       transform="translate(263.6855,151.79)"><path
         d="m 0,0 c 0,0 54.034,43.771 161.684,26.946 0,0 29.496,-9.671 0,-12.436 0,0 -61.789,-7.599 -90.514,-24.183 C 42.445,-26.258 3.455,-15.895 -0.689,-11.748 L 0,0 Z"
         style="fill:none;stroke:#231f20;stroke-width:1.41700006;stroke-linecap:butt;stroke-linejoin:miter;stroke-miterlimit:4;stroke-dasharray:none;stroke-opacity:1"
         id="path3616"
         inkscape:connector-curvature="0" /></g><g
       id="g3618"
       transform="translate(228.7979,409.6353)"><path
         d="M 0,0 28.573,0 C 11.667,-35.185 18.251,-80.272 18.251,-118.29 c 0,-14.79 1.49,-29.879 4.689,-44.311 2.816,-12.692 8.227,-22.094 14.998,-33.018 8.837,-14.256 10.289,-22.109 6.905,-39.804 -1.51,-7.885 -31.229,-33.469 -56.044,0.332 -5.413,7.373 -6.316,13.611 -3.386,23.233 3.02,9.919 9.116,18.066 13.148,27.444 6.362,14.805 9.891,31.225 10.923,47.253 1.507,23.409 -0.009,47.508 -0.009,70.965 0,21.55 2.659,47.363 -9.475,66.196"
         style="fill:#ffffff;fill-opacity:1;fill-rule:nonzero;stroke:#ffffff;stroke-width:11.33899975;stroke-linecap:butt;stroke-linejoin:miter;stroke-miterlimit:4;stroke-dasharray:none;stroke-opacity:1"
         id="path3620"
         inkscape:connector-curvature="0" /></g><g
       id="g3622"
       transform="translate(228.7979,409.6353)"><path
         d="M 0,0 28.573,0 C 16.921,-24.252 16.494,-52.186 17.17,-78.544 c 0.727,-28.375 -0.634,-57.956 6.152,-85.694 3.204,-13.095 10.45,-23.791 16.976,-35.353 5.609,-9.942 7.099,-19.708 5.389,-30.957 -1.061,-6.973 -3.801,-11.024 -9.599,-15.161 -6.448,-4.602 -14.468,-7.208 -22.415,-6.202 -9.246,1.171 -16.956,7.04 -22.736,14.066 -7.041,8.558 -8.618,17.013 -5.022,27.539 3.674,10.752 10.549,20.078 14.594,30.704 4.549,11.948 7.315,24.563 8.556,37.278 2.563,26.245 0.181,52.723 0.424,79.026 C 9.683,-42.3 11.943,-18.536 0,0"
         style="fill:#b1d418;fill-opacity:1;fill-rule:nonzero;stroke:#231f20;stroke-width:2.26799989;stroke-linecap:butt;stroke-linejoin:miter;stroke-miterlimit:4;stroke-dasharray:none;stroke-opacity:1"
         id="path3624"
         inkscape:connector-curvature="0" /></g><g
       id="g3634"
       transform="matrix(1.4681622,0,0,1.4681622,254.14893,194.46117)"><path
         d="m 0,0 c 0,-6.372 -3.081,-11.538 -6.882,-11.538 -3.801,0 -6.883,5.166 -6.883,11.538 0,6.369 3.082,11.533 6.883,11.533 C -3.081,11.533 0,6.369 0,0"
         style="fill:#231f20;fill-opacity:1;fill-rule:nonzero;stroke:none"
         id="path3636"
         inkscape:connector-curvature="0" /></g><g
       id="g3638"
       transform="matrix(1.4681622,0,0,1.4681622,254.14893,194.46117)"><path
         d="m 0,0 c 0,-6.372 -3.081,-11.538 -6.882,-11.538 -3.801,0 -6.883,5.166 -6.883,11.538 0,6.369 3.082,11.533 6.883,11.533 C -3.081,11.533 0,6.369 0,0 Z"
         style="fill:none;stroke:#ffffff;stroke-width:1.41700006;stroke-linecap:butt;stroke-linejoin:miter;stroke-miterlimit:4;stroke-dasharray:none;stroke-opacity:1"
         id="path3640"
         inkscape:connector-curvature="0" /></g><g
       id="g3658"
       transform="translate(206.7773,200.0225)"><path
         d="m 0,0 c -9.156,14.922 -7.546,32.124 -12.497,48.348 -2.438,7.989 -5.296,15.201 -10.642,21.69 -4.699,5.705 -9.75,11.266 -15.217,16.244 -19.173,17.457 -49.561,31.205 -55.534,58.814 -1.039,4.804 -12.012,1.964 -10.952,-2.934 5.937,-27.447 34.572,-42.061 54.315,-58.749 5.658,-4.782 10.459,-10.309 15.377,-15.824 5.99,-6.717 8.954,-13.68 11.701,-22.176 2.749,-8.503 3.275,-17.361 4.638,-26.136 1.337,-8.606 4.197,-16.556 8.752,-23.982 C -7.631,-8.661 2.875,-4.685 0,0"
         style="fill:#ffffff;fill-opacity:1;fill-rule:nonzero;stroke:none"
         id="path3660"
         inkscape:connector-curvature="0" /></g><g
       id="g3662"
       transform="translate(122.9243,338.9253)"><path
         d="m 0,0 c -2.316,-2.468 -10.249,-0.182 -17.719,5.104 -7.471,5.289 -11.653,11.577 -9.338,14.044 2.315,2.468 10.248,0.18 17.719,-5.107 C -1.866,8.754 2.313,2.467 0,0"
         style="fill:#ffffff;fill-opacity:1;fill-rule:nonzero;stroke:none"
         id="path3664"
         inkscape:connector-curvature="0" /></g><g
       id="g3666"
       transform="translate(122.9243,338.9253)"><path
         d="m 0,0 c -2.316,-2.468 -10.249,-0.182 -17.719,5.104 -7.471,5.289 -11.653,11.577 -9.338,14.044 2.315,2.468 10.248,0.18 17.719,-5.107 C -1.866,8.754 2.313,2.467 0,0 Z"
         style="fill:none;stroke:#ffffff;stroke-width:5.66900015;stroke-linecap:butt;stroke-linejoin:miter;stroke-miterlimit:4;stroke-dasharray:none;stroke-opacity:1"
         id="path3668"
         inkscape:connector-curvature="0" /></g><g
       id="g3670"
       transform="translate(204.7441,198.3076)"><path
         d="m 0,0 c -9.28,15.127 -7.704,32.358 -12.72,48.792 -2.398,7.858 -5.162,14.867 -10.419,21.248 -4.699,5.704 -9.749,11.265 -15.216,16.243 -19.365,17.633 -49.722,31.355 -55.757,59.257 -0.52,2.402 -6.006,0.981 -5.477,-1.468 5.855,-27.066 34.237,-41.505 53.703,-57.959 5.798,-4.9 10.727,-10.52 15.766,-16.171 6.079,-6.816 9.137,-13.998 11.924,-22.617 2.75,-8.504 3.275,-17.362 4.638,-26.137 1.311,-8.436 4.062,-16.259 8.529,-23.54 C -3.816,-4.33 1.437,-2.342 0,0"
         style="fill:#912223;fill-opacity:1;fill-rule:nonzero;stroke:none"
         id="path3672"
         inkscape:connector-curvature="0" /></g><g
       id="g3674"
       transform="translate(123.3892,340.8423)"><path
         d="m 0,0 c -2.172,-2.596 -10.221,-0.763 -17.979,4.093 -7.759,4.855 -12.291,10.896 -10.119,13.491 2.171,2.595 10.22,0.761 17.979,-4.095 C -2.358,8.634 2.17,2.594 0,0"
         style="fill:#fccb06;fill-opacity:1;fill-rule:nonzero;stroke:none"
         id="path3676"
         inkscape:connector-curvature="0" /></g><g
       id="g3678"
       transform="translate(123.3892,340.8423)"><path
         d="m 0,0 c -2.172,-2.596 -10.221,-0.763 -17.979,4.093 -7.759,4.855 -12.291,10.896 -10.119,13.491 2.171,2.595 10.22,0.761 17.979,-4.095 C -2.358,8.634 2.17,2.594 0,0 Z"
         style="fill:none;stroke:#231f20;stroke-width:1.41700006;stroke-linecap:butt;stroke-linejoin:miter;stroke-miterlimit:4;stroke-dasharray:none;stroke-opacity:1"
         id="path3680"
         inkscape:connector-curvature="0" /></g><g
       id="g3682"
       transform="translate(286.2305,196.2373)"><path
         d="m 0,0 c 4.305,7.016 6.899,14.545 8.383,22.616 1.594,8.67 1.959,17.429 4.38,25.949 2.468,8.687 5.694,15.982 11.662,22.786 4.819,5.493 9.644,10.9 15.194,15.67 20.152,17.319 48.936,31.719 55.044,59.951 1.111,5.139 -10.067,3.652 -11.064,-0.955 C 80.783,132.997 71.603,123.081 61.743,114.689 50.974,105.524 39.174,97.673 28.61,88.25 23.079,83.316 18.2,77.633 13.393,72.007 8.008,65.704 5.267,58.736 2.743,50.931 -2.659,34.221 -0.953,16.439 -10.41,1.025 -11.853,-1.327 -9.17,-3.072 -7.153,-3.271 -4.432,-3.542 -1.454,-2.369 0,0"
         style="fill:#ffffff;fill-opacity:1;fill-rule:nonzero;stroke:none"
         id="path3684"
         inkscape:connector-curvature="0" /></g><g
       id="g3686"
       transform="translate(359.8486,338.0059)"><path
         d="m 0,0 c 2.315,-2.468 10.248,-0.183 17.72,5.104 7.469,5.289 11.65,11.577 9.337,14.044 C 24.741,21.615 16.808,19.327 9.338,14.041 1.866,8.753 -2.313,2.466 0,0"
         style="fill:#ffffff;fill-opacity:1;fill-rule:nonzero;stroke:none"
         id="path3688"
         inkscape:connector-curvature="0" /></g><g
       id="g3690"
       transform="translate(359.8486,338.0059)"><path
         d="m 0,0 c 2.315,-2.468 10.248,-0.183 17.72,5.104 7.469,5.289 11.65,11.577 9.337,14.044 C 24.741,21.615 16.808,19.327 9.338,14.041 1.866,8.753 -2.313,2.466 0,0 Z"
         style="fill:none;stroke:#ffffff;stroke-width:5.66900015;stroke-linecap:butt;stroke-linejoin:miter;stroke-miterlimit:4;stroke-dasharray:none;stroke-opacity:1"
         id="path3692"
         inkscape:connector-curvature="0" /></g><g
       id="g3694"
       transform="translate(283.0889,196.168)"><path
         d="m 0,0 c 4.208,6.859 6.794,14.118 8.247,22.021 1.594,8.67 1.958,17.429 4.379,25.949 2.46,8.654 5.597,16.316 11.471,23.192 4.951,5.794 10.077,11.403 15.817,16.426 19.546,17.102 48.629,31.131 54.612,58.788 0.439,2.032 -5.074,1.138 -5.472,-0.701 C 83.083,118.07 52.986,104.033 33.619,86.758 28.311,82.023 23.687,76.587 19.006,71.25 13.526,65.003 10.833,58.373 8.199,50.59 2.49,33.72 4.517,15.75 -5.092,0.088 -6.421,-2.078 -0.92,-1.499 0,0"
         style="fill:#912223;fill-opacity:1;fill-rule:nonzero;stroke:none"
         id="path3696"
         inkscape:connector-curvature="0" /></g><g
       id="g3698"
       transform="translate(359.3838,339.9224)"><path
         d="M 0,0 C 2.172,-2.596 10.221,-0.763 17.979,4.093 25.737,8.948 30.27,14.989 28.098,17.584 25.927,20.179 17.877,18.345 10.118,13.489 2.358,8.634 -2.171,2.595 0,0"
         style="fill:#fccb06;fill-opacity:1;fill-rule:nonzero;stroke:none"
         id="path3700"
         inkscape:connector-curvature="0" /></g><g
       id="g3702"
       transform="translate(359.3838,339.9224)"><path
         d="M 0,0 C 2.172,-2.596 10.221,-0.763 17.979,4.093 25.737,8.948 30.27,14.989 28.098,17.584 25.927,20.179 17.877,18.345 10.118,13.489 2.358,8.634 -2.171,2.595 0,0 Z"
         style="fill:none;stroke:#231f20;stroke-width:1.41700006;stroke-linecap:butt;stroke-linejoin:miter;stroke-miterlimit:4;stroke-dasharray:none;stroke-opacity:1"
         id="path3704"
         inkscape:connector-curvature="0" /></g><g
       id="g3354"
       transform="matrix(1.1355567,0,0,1.1355567,658.83882,154.81665)"><path
         d="m 0,0 36.131,0.329 c 0,0 -21.942,-24.58 -11.713,-55.76 l -17.983,0.329 c 0,0 9.568,36.295 -6.435,55.102"
         style="fill:#22813d;fill-opacity:1;fill-rule:nonzero;stroke:none"
         id="path3356"
         inkscape:connector-curvature="0" /></g><g
       id="g3358"
       transform="matrix(1.1355567,0,0,1.1355567,658.83882,154.81665)"><path
         d="m 0,0 36.131,0.329 c 0,0 -21.942,-24.58 -11.713,-55.76 l -17.983,0.329 c 0,0 9.568,36.295 -6.435,55.102 z"
         style="fill:none;stroke:#231f20;stroke-width:1.41700006;stroke-linecap:butt;stroke-linejoin:miter;stroke-miterlimit:4;stroke-dasharray:none;stroke-opacity:1"
         id="path3360"
         inkscape:connector-curvature="0" /></g><g
       id="g3384"
       transform="matrix(1.1355567,0,0,1.1355567,688.76584,323.53664)"><path
         d="m 0,0 c -5.635,-2.402 -6.221,-6.411 -6.221,-6.411 -2.157,1.245 -3.964,5.816 -7.785,6.936 -38.561,-5.847 -73.131,-38.703 -73.131,-76.813 0,-42.269 36.239,-76.532 80.94,-76.532 44.701,0 80.938,34.263 80.938,76.532 C 74.741,-35.994 41.801,-2.996 0,0"
         style="fill:#d71920;fill-opacity:1;fill-rule:nonzero;stroke:none"
         id="path3386"
         inkscape:connector-curvature="0" /></g><g
       id="g3388"
       transform="matrix(1.1355567,0,0,1.1355567,688.76584,323.53664)"><path
         d="m 0,0 c -5.635,-2.402 -6.221,-6.411 -6.221,-6.411 -2.157,1.245 -3.964,5.816 -7.785,6.936 -38.561,-5.847 -73.131,-38.703 -73.131,-76.813 0,-42.269 36.239,-76.532 80.94,-76.532 44.701,0 80.938,34.263 80.938,76.532 C 74.741,-35.994 41.801,-2.996 0,0 Z"
         style="fill:none;stroke:#d71920;stroke-width:11.33899975;stroke-linecap:butt;stroke-linejoin:miter;stroke-miterlimit:4;stroke-dasharray:none;stroke-opacity:1"
         id="path3390"
         inkscape:connector-curvature="0" /></g><g
       id="g3392"
       transform="matrix(1.1355567,0,0,1.1355567,681.70189,276.77146)"><path
         d="m 0,0 c 0,0 -70.313,-30.615 -10.994,-69.269 l 22.816,0 c 0,0 55.361,34.228 -11.822,69.269"
         style="fill:#f5c170;fill-opacity:1;fill-rule:nonzero;stroke:none"
         id="path3394"
         inkscape:connector-curvature="0" /></g><g
       id="g3396"
       transform="matrix(1.1355567,0,0,1.1355567,681.70189,276.77146)"><path
         d="m 0,0 c 0,0 -70.313,-30.615 -10.994,-69.269 l 22.816,0 c 0,0 55.361,34.228 -11.822,69.269 z"
         style="fill:none;stroke:#f3a25c;stroke-width:1.41700006;stroke-linecap:butt;stroke-linejoin:miter;stroke-miterlimit:4;stroke-dasharray:none;stroke-opacity:1"
         id="path3398"
         inkscape:connector-curvature="0" /></g><g
       id="g3406"
       transform="matrix(1.1355567,0,0,1.1355567,686.91171,211.09211)"><path
         d="m 0,0 -9.184,0 c 0,0 -27.68,23.15 4.596,41.785 0,0 30.18,-16.617 4.588,-41.785"
         style="fill:#912223;fill-opacity:1;fill-rule:nonzero;stroke:none"
         id="path3408"
         inkscape:connector-curvature="0" /></g><g
       id="g3410"
       transform="matrix(1.1355567,0,0,1.1355567,686.91171,211.09211)"><path
         d="m 0,0 -9.184,0 c 0,0 -27.68,23.15 4.596,41.785 0,0 30.18,-16.617 4.588,-41.785 z"
         style="fill:none;stroke:#912223;stroke-width:1.41700006;stroke-linecap:butt;stroke-linejoin:miter;stroke-miterlimit:4;stroke-dasharray:none;stroke-opacity:1"
         id="path3412"
         inkscape:connector-curvature="0" /></g><g
       id="g3434"
       transform="matrix(1.1355567,0,0,1.1355567,579.67144,181.00871)"><path
         d="M 0,0 68.288,29.444"
         style="fill:#231f20;fill-opacity:1;fill-rule:nonzero;stroke:#ffffff;stroke-width:8.50399971;stroke-linecap:butt;stroke-linejoin:miter;stroke-miterlimit:4;stroke-dasharray:none;stroke-opacity:1"
         id="path3436"
         inkscape:connector-curvature="0" /></g><g
       id="g3438"
       transform="matrix(1.1355567,0,0,1.1355567,579.67144,181.00871)"><path
         d="M 0,0 68.288,29.444"
         style="fill:#231f20;fill-opacity:1;fill-rule:nonzero;stroke:#231f20;stroke-width:2.26799989;stroke-linecap:butt;stroke-linejoin:miter;stroke-miterlimit:4;stroke-dasharray:none;stroke-opacity:1"
         id="path3440"
         inkscape:connector-curvature="0" /></g><g
       id="g3442"
       transform="matrix(1.1355567,0,0,1.1355567,662.58593,215.68089)"><path
         d="m 0,0 c 0,-1.584 -1.285,-2.87 -2.871,-2.87 -1.586,0 -2.871,1.286 -2.871,2.87 0,1.586 1.285,2.872 2.871,2.872 C -1.285,2.872 0,1.586 0,0"
         style="fill:#231f20;fill-opacity:1;fill-rule:nonzero;stroke:none"
         id="path3444"
         inkscape:connector-curvature="0" /></g><g
       id="g3446"
       transform="matrix(1.1355567,0,0,1.1355567,662.58593,215.68089)"><path
         d="m 0,0 c 0,-1.584 -1.285,-2.87 -2.871,-2.87 -1.586,0 -2.871,1.286 -2.871,2.87 0,1.586 1.285,2.872 2.871,2.872 C -1.285,2.872 0,1.586 0,0 Z"
         style="fill:none;stroke:#ffffff;stroke-width:8.50399971;stroke-linecap:butt;stroke-linejoin:miter;stroke-miterlimit:4;stroke-dasharray:none;stroke-opacity:1"
         id="path3448"
         inkscape:connector-curvature="0" /></g><g
       id="g3450"
       transform="matrix(1.1355567,0,0,1.1355567,662.58593,215.68089)"><path
         d="m 0,0 c 0,-1.584 -1.285,-2.87 -2.871,-2.87 -1.586,0 -2.871,1.286 -2.871,2.87 0,1.586 1.285,2.872 2.871,2.872 C -1.285,2.872 0,1.586 0,0"
         style="fill:#231f20;fill-opacity:1;fill-rule:nonzero;stroke:none"
         id="path3452"
         inkscape:connector-curvature="0" /></g><g
       id="g3454"
       transform="matrix(1.1355567,0,0,1.1355567,573.09986,281.15846)"><path
         d="M 0,0 93.359,-42.08"
         style="fill:#231f20;fill-opacity:1;fill-rule:nonzero;stroke:#ffffff;stroke-width:8.50399971;stroke-linecap:butt;stroke-linejoin:miter;stroke-miterlimit:4;stroke-dasharray:none;stroke-opacity:1"
         id="path3456"
         inkscape:connector-curvature="0" /></g><g
       id="g3458"
       transform="matrix(1.1355567,0,0,1.1355567,573.09986,281.15846)"><path
         d="M 0,0 93.359,-42.08"
         style="fill:#231f20;fill-opacity:1;fill-rule:nonzero;stroke:#231f20;stroke-width:2.26799989;stroke-linecap:butt;stroke-linejoin:miter;stroke-miterlimit:4;stroke-dasharray:none;stroke-opacity:1"
         id="path3460"
         inkscape:connector-curvature="0" /></g><g
       id="g3462"
       transform="matrix(1.1355567,0,0,1.1355567,684.43211,232.79964)"><path
         d="m 0,0 c 0,-1.586 -1.286,-2.872 -2.872,-2.872 -1.585,0 -2.87,1.286 -2.87,2.872 0,1.586 1.285,2.871 2.87,2.871 C -1.286,2.871 0,1.586 0,0"
         style="fill:#231f20;fill-opacity:1;fill-rule:nonzero;stroke:none"
         id="path3464"
         inkscape:connector-curvature="0" /></g><g
       id="g3466"
       transform="matrix(1.1355567,0,0,1.1355567,684.43211,232.79964)"><path
         d="m 0,0 c 0,-1.586 -1.286,-2.872 -2.872,-2.872 -1.585,0 -2.87,1.286 -2.87,2.872 0,1.586 1.285,2.871 2.87,2.871 C -1.286,2.871 0,1.586 0,0 Z"
         style="fill:none;stroke:#ffffff;stroke-width:8.50399971;stroke-linecap:butt;stroke-linejoin:miter;stroke-miterlimit:4;stroke-dasharray:none;stroke-opacity:1"
         id="path3468"
         inkscape:connector-curvature="0" /></g><g
       id="g3470"
       transform="matrix(1.1355567,0,0,1.1355567,684.43211,232.79964)"><path
         d="m 0,0 c 0,-1.586 -1.286,-2.872 -2.872,-2.872 -1.585,0 -2.87,1.286 -2.87,2.872 0,1.586 1.285,2.871 2.87,2.871 C -1.286,2.871 0,1.586 0,0"
         style="fill:#231f20;fill-opacity:1;fill-rule:nonzero;stroke:none"
         id="path3472"
         inkscape:connector-curvature="0" /></g><g
       id="g3474"
       transform="matrix(1.1355567,0,0,1.1355567,672.95674,292.79564)"><path
         d="m 0,0 c 0,-1.586 -1.286,-2.872 -2.872,-2.872 -1.585,0 -2.87,1.286 -2.87,2.872 0,1.586 1.285,2.871 2.87,2.871 C -1.286,2.871 0,1.586 0,0"
         style="fill:#231f20;fill-opacity:1;fill-rule:nonzero;stroke:none"
         id="path3476"
         inkscape:connector-curvature="0" /></g><g
       id="g3478"
       transform="matrix(1.1355567,0,0,1.1355567,672.95674,292.79564)"><path
         d="m 0,0 c 0,-1.586 -1.286,-2.872 -2.872,-2.872 -1.585,0 -2.87,1.286 -2.87,2.872 0,1.586 1.285,2.871 2.87,2.871 C -1.286,2.871 0,1.586 0,0 Z"
         style="fill:none;stroke:#ffffff;stroke-width:8.50399971;stroke-linecap:butt;stroke-linejoin:miter;stroke-miterlimit:4;stroke-dasharray:none;stroke-opacity:1"
         id="path3480"
         inkscape:connector-curvature="0" /></g><g
       id="g3482"
       transform="matrix(1.1355567,0,0,1.1355567,672.95674,292.79564)"><path
         d="m 0,0 c 0,-1.586 -1.286,-2.872 -2.872,-2.872 -1.585,0 -2.87,1.286 -2.87,2.872 0,1.586 1.285,2.871 2.87,2.871 C -1.286,2.871 0,1.586 0,0"
         style="fill:#231f20;fill-opacity:1;fill-rule:nonzero;stroke:none"
         id="path3484"
         inkscape:connector-curvature="0" /></g><g
       id="g3486"
       transform="matrix(1.1355567,0,0,1.1355567,616.22773,340.10418)"><path
         d="M 0,0 43.214,-38.539"
         style="fill:#231f20;fill-opacity:1;fill-rule:nonzero;stroke:#ffffff;stroke-width:8.50399971;stroke-linecap:butt;stroke-linejoin:miter;stroke-miterlimit:4;stroke-dasharray:none;stroke-opacity:1"
         id="path3488"
         inkscape:connector-curvature="0" /></g><g
       id="g3490"
       transform="matrix(1.1355567,0,0,1.1355567,616.22773,340.10418)"><path
         d="M 0,0 43.214,-38.539"
         style="fill:#231f20;fill-opacity:1;fill-rule:nonzero;stroke:#231f20;stroke-width:2.26799989;stroke-linecap:butt;stroke-linejoin:miter;stroke-miterlimit:4;stroke-dasharray:none;stroke-opacity:1"
         id="path3492"
         inkscape:connector-curvature="0" /></g><text
       xml:space="preserve"
       style="font-style:normal;font-weight:normal;font-size:24px;line-height:125%;font-family:sans-serif;letter-spacing:0px;word-spacing:0px;fill:#000000;fill-opacity:1;stroke:none;stroke-width:1px;stroke-linecap:butt;stroke-linejoin:miter;stroke-opacity:1"
       x="587.64557"
       y="-552.09406"
       id="text4224"
       sodipodi:linespacing="125%"
       transform="scale(1,-1)"><tspan
         sodipodi:role="line"
         id="tspan4226"
         x="587.64557"
         y="-552.09406" /></text>
<text
       xml:space="preserve"
       style="font-style:normal;font-variant:normal;font-weight:bold;font-stretch:normal;font-size:32px;line-height:125%;font-family:Arial;-inkscape-font-specification:'Arial, Bold';text-align:start;letter-spacing:0px;word-spacing:0px;writing-mode:lr-tb;text-anchor:start;fill:#ff0000;fill-opacity:1;stroke:none;stroke-width:1px;stroke-linecap:butt;stroke-linejoin:miter;stroke-opacity:1;"
       x="49.094944"
       y="-508.8912"
       id="text4232"
       sodipodi:linespacing="125%"
       transform="scale(1,-1)"><tspan
         sodipodi:role="line"
         id="tspan4234"
         x="49.094944"
         y="-508.8912">La transformation de la fleur de cerisier en cerise</tspan></text>
<text
       xml:space="preserve"
       style="font-style:normal;font-weight:normal;font-size:24px;line-height:125%;font-family:sans-serif;letter-spacing:0px;word-spacing:0px;fill:#000000;fill-opacity:1;stroke:none;stroke-width:1px;stroke-linecap:butt;stroke-linejoin:miter;stroke-opacity:1"
       x="123.84937"
       y="-40.829479"
       id="text4236"
       sodipodi:linespacing="125%"
       transform="scale(1,-1)"><tspan
         sodipodi:role="line"
         id="tspan4238"
         x="123.84937"
         y="-40.829479"
         style="font-style:normal;font-variant:normal;font-weight:bold;font-stretch:normal;font-size:32px;line-height:125%;font-family:Arial;-inkscape-font-specification:'Arial, Bold';text-align:start;writing-mode:lr-tb;text-anchor:start">coupe de la fleur</tspan></text>
<text
       xml:space="preserve"
       style="font-style:normal;font-weight:normal;font-size:24px;line-height:125%;font-family:sans-serif;letter-spacing:0px;word-spacing:0px;fill:#000000;fill-opacity:1;stroke:none;stroke-width:1px;stroke-linecap:butt;stroke-linejoin:miter;stroke-opacity:1"
       x="567.39935"
       y="-45.947121"
       id="text4236-9"
       sodipodi:linespacing="125%"
       transform="scale(1,-1)"><tspan
         sodipodi:role="line"
         id="tspan4238-2"
         x="567.39935"
         y="-45.947121"
         style="font-style:normal;font-variant:normal;font-weight:bold;font-stretch:normal;font-size:32px;line-height:125%;font-family:Arial;-inkscape-font-specification:'Arial, Bold';text-align:start;writing-mode:lr-tb;text-anchor:start">coupe du fruit</tspan></text>
</g><g
     inkscape:groupmode="layer"
     id="layer1"
     inkscape:label="numérotation"
     style="display:none"><path
       transform="matrix(1.25,0,0,-1.25,0,744.095)"
       style="display:inline;fill:none;stroke:#ffffff;stroke-width:16.04409409"
       inkscape:connector-curvature="0"
       id="path756-9"
       data-link="1"
       d="m 166.74201,159.52438 m -8.02204,0 a 8.0220472,8.0220472 0 1 1 16.04409,0 8.0220472,8.0220472 0 0 1 -16.04409,0"
       class="link_1 c1 notDeletable" /><text
       xml:space="preserve"
       style="font-style:normal;font-variant:normal;font-weight:bold;font-stretch:normal;font-size:24px;line-height:125%;font-family:Arial;-inkscape-font-specification:'Arial, Bold';text-align:start;letter-spacing:0px;word-spacing:0px;writing-mode:lr-tb;text-anchor:start;fill:#000000;fill-opacity:1;stroke:none;stroke-width:1px;stroke-linecap:butt;stroke-linejoin:miter;stroke-opacity:1"
       x="159.62891"
       y="-150.125"
       id="text4096-0"
       sodipodi:linespacing="125%"
       transform="matrix(1.25,0,0,1.25,0,744.095)"><tspan
         sodipodi:role="line"
         id="tspan4098-0"
         x="159.62891"
         y="-150.125">2</tspan></text>
<path
       transform="matrix(1.25,0,0,-1.25,0,744.095)"
       style="display:inline;fill:none;stroke:#ffffff;stroke-width:16.04409409"
       inkscape:connector-curvature="0"
       id="path756-9-2"
       data-link="1"
       d="m 310.00773,155.31067 m -8.02204,0 a 8.0220472,8.0220472 0 1 1 16.04409,0 8.0220472,8.0220472 0 0 1 -16.04409,0"
       class="link_1 c1 notDeletable" /><text
       xml:space="preserve"
       style="font-style:normal;font-variant:normal;font-weight:bold;font-stretch:normal;font-size:24px;line-height:125%;font-family:Arial;-inkscape-font-specification:'Arial, Bold';text-align:start;letter-spacing:0px;word-spacing:0px;writing-mode:lr-tb;text-anchor:start;fill:#000000;fill-opacity:1;stroke:none;stroke-width:1px;stroke-linecap:butt;stroke-linejoin:miter;stroke-opacity:1"
       x="303.7789"
       y="-148.17502"
       id="text4096-8"
       sodipodi:linespacing="125%"
       transform="matrix(1.25,0,0,1.25,0,744.095)"><tspan
         sodipodi:role="line"
         id="tspan4098-76"
         x="303.7789"
         y="-148.17502">2</tspan></text>
<text
       xml:space="preserve"
       style="font-style:normal;font-variant:normal;font-weight:bold;font-stretch:normal;font-size:24px;line-height:125%;font-family:Arial;-inkscape-font-specification:'Arial, Bold';text-align:start;letter-spacing:0px;word-spacing:0px;writing-mode:lr-tb;text-anchor:start;fill:#000000;fill-opacity:1;stroke:none;stroke-width:1px;stroke-linecap:butt;stroke-linejoin:miter;stroke-opacity:1"
       x="277.64703"
       y="-98.823555"
       id="text4048"
       sodipodi:linespacing="125%"
       transform="matrix(1.25,0,0,1.25,0,744.095)"><tspan
         sodipodi:role="line"
         id="tspan4050"
         x="277.64703"
         y="-98.823555">1</tspan></text>
<path
       transform="matrix(1.25,0,0,-1.25,0,744.095)"
       style="display:inline;fill:none;stroke:#ffffff;stroke-width:16.04409409"
       inkscape:connector-curvature="0"
       id="path756"
       data-link="1"
       d="m 151.09115,239.58515 m -8.02204,0 a 8.0220472,8.0220472 0 1 1 16.04409,0 8.0220472,8.0220472 0 0 1 -16.04409,0"
       class="link_1 c1 notDeletable" /><text
       xml:space="preserve"
       style="font-style:normal;font-weight:normal;font-size:24px;line-height:125%;font-family:sans-serif;letter-spacing:0px;word-spacing:0px;fill:#000000;fill-opacity:1;stroke:none;stroke-width:1px;stroke-linecap:butt;stroke-linejoin:miter;stroke-opacity:1"
       x="145"
       y="-231.25003"
       id="text4062"
       sodipodi:linespacing="125%"
       transform="matrix(1.25,0,0,1.25,0,744.095)"><tspan
         sodipodi:role="line"
         id="tspan4064"
         x="145"
         y="-231.25003"
         style="font-style:normal;font-variant:normal;font-weight:bold;font-stretch:normal;font-size:24px;line-height:125%;font-family:Arial;-inkscape-font-specification:'Arial, Bold';text-align:start;writing-mode:lr-tb;text-anchor:start">3</tspan></text>
<path
       transform="matrix(1.25,0,0,-1.25,0,744.095)"
       style="display:inline;fill:none;stroke:#ffffff;stroke-width:16.04409409"
       inkscape:connector-curvature="0"
       id="path756-9-3"
       data-link="1"
       d="m 334.68796,239.58462 m -8.02204,0 a 8.0220472,8.0220472 0 1 1 16.04409,0 8.0220472,8.0220472 0 0 1 -16.04409,0"
       class="link_1 c1 notDeletable" /><text
       xml:space="preserve"
       style="font-style:normal;font-weight:normal;font-size:24px;line-height:125%;font-family:sans-serif;letter-spacing:0px;word-spacing:0px;fill:#000000;fill-opacity:1;stroke:none;stroke-width:1px;stroke-linecap:butt;stroke-linejoin:miter;stroke-opacity:1"
       x="328.39063"
       y="-231.52151"
       id="text4062-1"
       sodipodi:linespacing="125%"
       transform="matrix(1.25,0,0,1.25,0,744.095)"><tspan
         sodipodi:role="line"
         id="tspan4064-8"
         x="328.39063"
         y="-231.52151"
         style="font-style:normal;font-variant:normal;font-weight:bold;font-stretch:normal;font-size:24px;line-height:125%;font-family:Arial;-inkscape-font-specification:'Arial, Bold';text-align:start;writing-mode:lr-tb;text-anchor:start">3</tspan></text>
<text
       xml:space="preserve"
       style="font-style:normal;font-variant:normal;font-weight:bold;font-stretch:normal;font-size:24px;line-height:125%;font-family:Arial;-inkscape-font-specification:'Arial, Bold';text-align:start;letter-spacing:0px;word-spacing:0px;writing-mode:lr-tb;text-anchor:start;fill:#000000;fill-opacity:1;stroke:none;stroke-width:1px;stroke-linecap:butt;stroke-linejoin:miter;stroke-opacity:1"
       x="382.51624"
       y="-369.49121"
       id="text4096-5"
       sodipodi:linespacing="125%"
       transform="matrix(1.25,0,0,1.25,0,744.095)"><tspan
         sodipodi:role="line"
         id="tspan4098-7"
         x="382.51624"
         y="-369.49121">4</tspan></text>
<text
       xml:space="preserve"
       style="font-style:normal;font-variant:normal;font-weight:bold;font-stretch:normal;font-size:24px;line-height:125%;font-family:Arial;-inkscape-font-specification:'Arial, Bold';text-align:start;letter-spacing:0px;word-spacing:0px;writing-mode:lr-tb;text-anchor:start;fill:#000000;fill-opacity:1;stroke:none;stroke-width:1px;stroke-linecap:butt;stroke-linejoin:miter;stroke-opacity:1"
       x="304.38379"
       y="-388.60919"
       id="text4096"
       sodipodi:linespacing="125%"
       transform="matrix(1.25,0,0,1.25,0,744.095)"><tspan
         sodipodi:role="line"
         id="tspan4098"
         x="304.38379"
         y="-388.60919">4</tspan></text>
<text
       xml:space="preserve"
       style="font-style:normal;font-variant:normal;font-weight:bold;font-stretch:normal;font-size:24px;line-height:125%;font-family:Arial;-inkscape-font-specification:'Arial, Bold';text-align:start;letter-spacing:0px;word-spacing:0px;writing-mode:lr-tb;text-anchor:start;fill:#000000;fill-opacity:1;stroke:none;stroke-width:1px;stroke-linecap:butt;stroke-linejoin:miter;stroke-opacity:1"
       x="239.01271"
       y="-416.16376"
       id="text4096-83"
       sodipodi:linespacing="125%"
       transform="matrix(1.25,0,0,1.25,0,744.095)"><tspan
         sodipodi:role="line"
         id="tspan4098-6"
         x="239.01271"
         y="-416.16376">5</tspan></text>
<text
       xml:space="preserve"
       style="font-style:normal;font-weight:normal;font-size:24px;line-height:125%;font-family:sans-serif;letter-spacing:0px;word-spacing:0px;fill:#000000;fill-opacity:1;stroke:none;stroke-width:1px;stroke-linecap:butt;stroke-linejoin:miter;stroke-opacity:1"
       x="173.38028"
       y="-393.73242"
       id="text4092"
       sodipodi:linespacing="125%"
       transform="matrix(1.25,0,0,1.25,0,744.095)"><tspan
         sodipodi:role="line"
         id="tspan4094"
         x="173.38028"
         y="-393.73242"
         style="font-style:normal;font-variant:normal;font-weight:bold;font-stretch:normal;font-size:24px;line-height:125%;font-family:Arial;-inkscape-font-specification:'Arial, Bold';text-align:start;writing-mode:lr-tb;text-anchor:start">4</tspan></text>
<text
       xml:space="preserve"
       style="font-style:normal;font-weight:normal;font-size:24px;line-height:125%;font-family:sans-serif;letter-spacing:0px;word-spacing:0px;fill:#000000;fill-opacity:1;stroke:none;stroke-width:1px;stroke-linecap:butt;stroke-linejoin:miter;stroke-opacity:1"
       x="82.756821"
       y="-366.7504"
       id="text4062-2"
       sodipodi:linespacing="125%"
       transform="matrix(1.25,0,0,1.25,0,744.095)"><tspan
         sodipodi:role="line"
         id="tspan4064-4"
         x="82.756821"
         y="-366.7504"
         style="font-style:normal;font-variant:normal;font-weight:bold;font-stretch:normal;font-size:24px;line-height:125%;font-family:Arial;-inkscape-font-specification:'Arial, Bold';text-align:start;writing-mode:lr-tb;text-anchor:start">4</tspan></text>
<text
       xml:space="preserve"
       style="font-style:normal;font-variant:normal;font-weight:bold;font-stretch:normal;font-size:27.25336075px;line-height:125%;font-family:Arial;-inkscape-font-specification:'Arial, Bold';text-align:start;letter-spacing:0px;word-spacing:0px;writing-mode:lr-tb;text-anchor:start;fill:#000000;fill-opacity:1;stroke:none;stroke-width:1px;stroke-linecap:butt;stroke-linejoin:miter;stroke-opacity:1"
       x="580.22607"
       y="-345.08051"
       id="text4096-4"
       sodipodi:linespacing="125%"
       transform="matrix(1.25,0,0,1.25,0,744.095)"><tspan
         sodipodi:role="line"
         id="tspan4098-1"
         x="580.22607"
         y="-345.08051"
         style="font-style:normal;font-variant:normal;font-weight:bold;font-stretch:normal;font-size:24px;line-height:125%;font-family:Arial;-inkscape-font-specification:'Arial, Bold';text-align:start;writing-mode:lr-tb;text-anchor:start">6</tspan></text>
<text
       xml:space="preserve"
       style="font-style:normal;font-variant:normal;font-weight:bold;font-stretch:normal;font-size:24px;line-height:125%;font-family:Arial;-inkscape-font-specification:'Arial, Bold';text-align:start;letter-spacing:0px;word-spacing:0px;writing-mode:lr-tb;text-anchor:start;fill:#000000;fill-opacity:1;stroke:none;stroke-width:1px;stroke-linecap:butt;stroke-linejoin:miter;stroke-opacity:1"
       x="540.56158"
       y="-278.54651"
       id="text4096-80"
       sodipodi:linespacing="125%"
       transform="matrix(1.25,0,0,1.25,0,744.095)"><tspan
         sodipodi:role="line"
         id="tspan4098-8"
         x="540.56158"
         y="-278.54651">8</tspan></text>
<text
       xml:space="preserve"
       style="font-style:normal;font-variant:normal;font-weight:bold;font-stretch:normal;font-size:24px;line-height:125%;font-family:Arial;-inkscape-font-specification:'Arial, Bold';text-align:start;letter-spacing:0px;word-spacing:0px;writing-mode:lr-tb;text-anchor:start;fill:#000000;fill-opacity:1;stroke:none;stroke-width:1px;stroke-linecap:butt;stroke-linejoin:miter;stroke-opacity:1"
       x="546.95905"
       y="-169.78897"
       id="text4096-1"
       sodipodi:linespacing="125%"
       transform="matrix(1.25,0,0,1.25,0,744.095)"><tspan
         sodipodi:role="line"
         id="tspan4098-69"
         x="546.95905"
         y="-169.78897">7</tspan></text>
</g></svg>