<?xml version="1.0" encoding="UTF-8" standalone="no"?>
<!-- Created with Inkscape (http://www.inkscape.org/) -->

<svg
   xmlns:dc="http://purl.org/dc/elements/1.1/"
   xmlns:cc="http://creativecommons.org/ns#"
   xmlns:rdf="http://www.w3.org/1999/02/22-rdf-syntax-ns#"
   xmlns:svg="http://www.w3.org/2000/svg"
   xmlns="http://www.w3.org/2000/svg"
   xmlns:sodipodi="http://sodipodi.sourceforge.net/DTD/sodipodi-0.dtd"
   xmlns:inkscape="http://www.inkscape.org/namespaces/inkscape"
   id="svg4066"
   version="1.1"
   inkscape:version="0.91 r13725"
   xml:space="preserve"
   width="1488.3"
   height="1052.4"
   viewBox="0 0 1488.3 1052.4"
   sodipodi:docname="carteheuristique.svg"
   inkscape:export-filename="C:\Users\Accessimap\Desktop\Carte_heuristique\carteheuristique.png"
   inkscape:export-xdpi="200"
   inkscape:export-ydpi="200"><metadata
     id="metadata4072"><rdf:RDF><cc:Work
         rdf:about=""><dc:format>image/svg+xml</dc:format><dc:type
           rdf:resource="http://purl.org/dc/dcmitype/StillImage" /><dc:title /></cc:Work></rdf:RDF></metadata><defs
     id="defs4070"><clipPath
       clipPathUnits="userSpaceOnUse"
       id="clipPath4092"><path
         d="m 563.36,343.48 167.28,0 0,125.79 -167.28,0 0,-125.79 z"
         id="path4094"
         inkscape:connector-curvature="0"
         style="clip-rule:evenodd" /></clipPath><clipPath
       clipPathUnits="userSpaceOnUse"
       id="clipPath4104"><path
         d="m 563.36,343.48 167.28,0 0,125.79 -167.28,0 0,-125.79 z"
         id="path4106"
         inkscape:connector-curvature="0"
         style="clip-rule:evenodd" /></clipPath><clipPath
       clipPathUnits="userSpaceOnUse"
       id="clipPath4116"><path
         d="m 563.36,343.48 167.28,0 0,125.79 -167.28,0 0,-125.79 z"
         id="path4118"
         inkscape:connector-curvature="0"
         style="clip-rule:evenodd" /></clipPath><clipPath
       clipPathUnits="userSpaceOnUse"
       id="clipPath4128"><path
         d="m 563.36,343.48 167.28,0 0,125.79 -167.28,0 0,-125.79 z"
         id="path4130"
         inkscape:connector-curvature="0"
         style="clip-rule:evenodd" /></clipPath><clipPath
       clipPathUnits="userSpaceOnUse"
       id="clipPath4140"><path
         d="m 563.36,343.48 167.28,0 0,125.79 -167.28,0 0,-125.79 z"
         id="path4142"
         inkscape:connector-curvature="0"
         style="clip-rule:evenodd" /></clipPath><clipPath
       clipPathUnits="userSpaceOnUse"
       id="clipPath4152"><path
         d="m 563.36,343.48 167.28,0 0,125.79 -167.28,0 0,-125.79 z"
         id="path4154"
         inkscape:connector-curvature="0"
         style="clip-rule:evenodd" /></clipPath><clipPath
       clipPathUnits="userSpaceOnUse"
       id="clipPath4164"><path
         d="m 563.36,343.48 167.28,0 0,125.79 -167.28,0 0,-125.79 z"
         id="path4166"
         inkscape:connector-curvature="0"
         style="clip-rule:evenodd" /></clipPath><clipPath
       clipPathUnits="userSpaceOnUse"
       id="clipPath4172"><path
         d="m 563.36,343.48 167.28,0 0,125.79 -167.28,0 0,-125.79 z"
         id="path4174"
         inkscape:connector-curvature="0"
         style="clip-rule:evenodd" /></clipPath><clipPath
       clipPathUnits="userSpaceOnUse"
       id="clipPath4184"><path
         d="m 940.05,598.29 215.43,0 0,83.4 -215.43,0 0,-83.4 z"
         id="path4186"
         inkscape:connector-curvature="0"
         style="clip-rule:evenodd" /></clipPath><clipPath
       clipPathUnits="userSpaceOnUse"
       id="clipPath4196"><path
         d="m 940.05,598.29 215.43,0 0,83.4 -215.43,0 0,-83.4 z"
         id="path4198"
         inkscape:connector-curvature="0"
         style="clip-rule:evenodd" /></clipPath><clipPath
       clipPathUnits="userSpaceOnUse"
       id="clipPath4204"><path
         d="m 940.05,598.29 215.43,0 0,83.4 -215.43,0 0,-83.4 z"
         id="path4206"
         inkscape:connector-curvature="0"
         style="clip-rule:evenodd" /></clipPath><clipPath
       clipPathUnits="userSpaceOnUse"
       id="clipPath4216"><path
         d="m 940.05,598.29 215.43,0 0,83.4 -215.43,0 0,-83.4 z"
         id="path4218"
         inkscape:connector-curvature="0"
         style="clip-rule:evenodd" /></clipPath><clipPath
       clipPathUnits="userSpaceOnUse"
       id="clipPath4228"><path
         d="m 504.53,598.29 284.92,0 0,49.44 -284.92,0 0,-49.44 z"
         id="path4230"
         inkscape:connector-curvature="0"
         style="clip-rule:evenodd" /></clipPath><clipPath
       clipPathUnits="userSpaceOnUse"
       id="clipPath4240"><path
         d="m 504.53,598.29 284.92,0 0,49.44 -284.92,0 0,-49.44 z"
         id="path4242"
         inkscape:connector-curvature="0"
         style="clip-rule:evenodd" /></clipPath><clipPath
       clipPathUnits="userSpaceOnUse"
       id="clipPath4268"><path
         d="m 523.61,155.07 246.77,0 0,53.895 -246.77,0 0,-53.895 z"
         id="path4270"
         inkscape:connector-curvature="0"
         style="clip-rule:evenodd" /></clipPath><clipPath
       clipPathUnits="userSpaceOnUse"
       id="clipPath4280"><path
         d="m 523.61,155.07 246.77,0 0,53.895 -246.77,0 0,-53.895 z"
         id="path4282"
         inkscape:connector-curvature="0"
         style="clip-rule:evenodd" /></clipPath><clipPath
       clipPathUnits="userSpaceOnUse"
       id="clipPath4288"><path
         d="m 523.61,155.07 246.77,0 0,53.895 -246.77,0 0,-53.895 z"
         id="path4290"
         inkscape:connector-curvature="0"
         style="clip-rule:evenodd" /></clipPath><clipPath
       clipPathUnits="userSpaceOnUse"
       id="clipPath4300"><path
         d="m 940.05,157.71 148.83,0 0,51.255 -148.83,0 0,-51.255 z"
         id="path4302"
         inkscape:connector-curvature="0"
         style="clip-rule:evenodd" /></clipPath><clipPath
       clipPathUnits="userSpaceOnUse"
       id="clipPath4312"><path
         d="m 940.05,157.71 148.83,0 0,51.255 -148.83,0 0,-51.255 z"
         id="path4314"
         inkscape:connector-curvature="0"
         style="clip-rule:evenodd" /></clipPath><clipPath
       clipPathUnits="userSpaceOnUse"
       id="clipPath4320"><path
         d="m 940.05,157.71 148.83,0 0,51.255 -148.83,0 0,-51.255 z"
         id="path4322"
         inkscape:connector-curvature="0"
         style="clip-rule:evenodd" /></clipPath><clipPath
       clipPathUnits="userSpaceOnUse"
       id="clipPath4332"><path
         d="m 205.59,598.29 157.1,0 0,50.16 -157.1,0 0,-50.16 z"
         id="path4334"
         inkscape:connector-curvature="0"
         style="clip-rule:evenodd" /></clipPath><clipPath
       clipPathUnits="userSpaceOnUse"
       id="clipPath4344"><path
         d="m 205.59,598.29 157.1,0 0,50.16 -157.1,0 0,-50.16 z"
         id="path4346"
         inkscape:connector-curvature="0"
         style="clip-rule:evenodd" /></clipPath><clipPath
       clipPathUnits="userSpaceOnUse"
       id="clipPath4352"><path
         d="m 205.59,598.29 157.1,0 0,50.16 -157.1,0 0,-50.16 z"
         id="path4354"
         inkscape:connector-curvature="0"
         style="clip-rule:evenodd" /></clipPath><clipPath
       clipPathUnits="userSpaceOnUse"
       id="clipPath4364"><path
         d="m 158.43,364.12 204.26,0 0,86.55 -204.26,0 0,-86.55 z"
         id="path4366"
         inkscape:connector-curvature="0"
         style="clip-rule:evenodd" /></clipPath><clipPath
       clipPathUnits="userSpaceOnUse"
       id="clipPath4376"><path
         d="m 158.43,364.12 204.26,0 0,86.55 -204.26,0 0,-86.55 z"
         id="path4378"
         inkscape:connector-curvature="0"
         style="clip-rule:evenodd" /></clipPath><clipPath
       clipPathUnits="userSpaceOnUse"
       id="clipPath4388"><path
         d="m 158.43,364.12 204.26,0 0,86.55 -204.26,0 0,-86.55 z"
         id="path4390"
         inkscape:connector-curvature="0"
         style="clip-rule:evenodd" /></clipPath><clipPath
       clipPathUnits="userSpaceOnUse"
       id="clipPath4400"><path
         d="m 158.43,364.12 204.26,0 0,86.55 -204.26,0 0,-86.55 z"
         id="path4402"
         inkscape:connector-curvature="0"
         style="clip-rule:evenodd" /></clipPath><clipPath
       clipPathUnits="userSpaceOnUse"
       id="clipPath4408"><path
         d="m 158.43,364.12 204.26,0 0,86.55 -204.26,0 0,-86.55 z"
         id="path4410"
         inkscape:connector-curvature="0"
         style="clip-rule:evenodd" /></clipPath><clipPath
       clipPathUnits="userSpaceOnUse"
       id="clipPath4420"><path
         d="m 98.64,116.67 264.05,0 0,92.295 -264.05,0 0,-92.295 z"
         id="path4422"
         inkscape:connector-curvature="0"
         style="clip-rule:evenodd" /></clipPath><clipPath
       clipPathUnits="userSpaceOnUse"
       id="clipPath4432"><path
         d="m 98.64,116.67 264.05,0 0,92.295 -264.05,0 0,-92.295 z"
         id="path4434"
         inkscape:connector-curvature="0"
         style="clip-rule:evenodd" /></clipPath><clipPath
       clipPathUnits="userSpaceOnUse"
       id="clipPath4444"><path
         d="m 98.64,116.67 264.05,0 0,92.295 -264.05,0 0,-92.295 z"
         id="path4446"
         inkscape:connector-curvature="0"
         style="clip-rule:evenodd" /></clipPath></defs><sodipodi:namedview
     pagecolor="#ffffff"
     bordercolor="#666666"
     borderopacity="1"
     objecttolerance="10"
     gridtolerance="10"
     guidetolerance="10"
     inkscape:pageopacity="0"
     inkscape:pageshadow="2"
     inkscape:window-width="1366"
     inkscape:window-height="706"
     id="namedview4068"
     showgrid="false"
     inkscape:zoom="0.525169"
     inkscape:cx="673.83559"
     inkscape:cy="573.25618"
     inkscape:window-x="-8"
     inkscape:window-y="-8"
     inkscape:window-maximized="1"
     inkscape:current-layer="layer1" /><g
     id="g4074"
     inkscape:groupmode="layer"
     inkscape:label="déf litt d'un texte"
     transform="matrix(1.25,0,0,-1.25,0,1052.4)"><text
       transform="matrix(1,0,0,-1,333.17,756.84)"
       style="font-variant:normal;font-weight:normal;font-size:21.95999908px;font-family:'Braille Français';-inkscape-font-specification:'Braille Français';writing-mode:lr-tb;fill:#000000;fill-opacity:1;fill-rule:nonzero;stroke:none"
       id="text4076"><tspan
         x="0"
         y="0"
         id="tspan4078">¨</tspan></text>
<text
       transform="matrix(1,0,0,-1,349.01,756.84)"
       style="font-variant:normal;font-weight:normal;font-size:21.95999908px;font-family:'Braille Français';-inkscape-font-specification:'Braille Français';writing-mode:lr-tb;fill:#000000;fill-opacity:1;fill-rule:nonzero;stroke:none"
       id="text4080"><tspan
         x="0 15.87708 31.75416 47.631241 63.5742 79.451279 95.328362 111.20544 127.08252 142.95959 158.83669 174.80161 190.67868 206.55576 222.43285 238.30992 254.187 270.06409 286.02899 301.90607 317.78317 333.66025 349.53732 365.4144 381.29147 397.25641 413.13348 429.01056 444.88763 460.76471 476.64182 492.51889"
         y="0"
         sodipodi:role="line"
         id="tspan4082">Définition littéraire d'un texte</tspan></text>
<path
       d="m 646.95,500.57 c -64.54,0 -116.85,-42.14 -116.85,-94.12 0,-51.99 52.31,-94.13 116.85,-94.13 64.54,0 116.85,42.14 116.85,94.13 0,51.98 -52.31,94.12 -116.85,94.12 z"
       style="fill:#ffffff;fill-opacity:1;fill-rule:evenodd;stroke:none"
       id="path4084"
       inkscape:connector-curvature="0" /><path
       d="m 646.95,500.57 c -64.54,0 -116.85,-42.14 -116.85,-94.12 0,-51.99 52.31,-94.13 116.85,-94.13 64.54,0 116.85,42.14 116.85,94.13 0,51.98 -52.31,94.12 -116.85,94.12 z"
       style="fill:none;stroke:#000000;stroke-width:3;stroke-linecap:round;stroke-linejoin:round;stroke-miterlimit:10;stroke-dasharray:none;stroke-opacity:1"
       id="path4086"
       inkscape:connector-curvature="0" /><g
       id="g4088"><g
         id="g4090"
         clip-path="url(#clipPath4092)"><text
           transform="matrix(1,0,0,-1,599.35,448.15)"
           style="font-variant:normal;font-weight:normal;font-size:21.95999908px;font-family:'Braille Français';-inkscape-font-specification:'Braille Français';writing-mode:lr-tb;fill:#000000;fill-opacity:1;fill-rule:nonzero;stroke:none"
           id="text4096"><tspan
             x="0 15.87708 31.68828 47.631241 63.50832"
             y="0"
             sodipodi:role="line"
             id="tspan4098">Texte</tspan></text>
</g></g><g
       id="g4100"><g
         id="g4102"
         clip-path="url(#clipPath4104)"><text
           transform="matrix(1,0,0,-1,678.79,448.15)"
           style="font-variant:normal;font-weight:normal;font-size:21.95999908px;font-family:'Braille Français';-inkscape-font-specification:'Braille Français';writing-mode:lr-tb;fill:#000000;fill-opacity:1;fill-rule:nonzero;stroke:none"
           id="text4108"><tspan
             x="0 15.83998"
             y="0"
             sodipodi:role="line"
             id="tspan4110">: </tspan></text>
</g></g><g
       id="g4112"><g
         id="g4114"
         clip-path="url(#clipPath4116)"><text
           transform="matrix(1,0,0,-1,599.35,418.27)"
           style="font-variant:normal;font-weight:normal;font-size:21.95999908px;font-family:'Braille Français';-inkscape-font-specification:'Braille Français';writing-mode:lr-tb;fill:#000000;fill-opacity:1;fill-rule:nonzero;stroke:none"
           id="text4120"><tspan
             x="0"
             y="0"
             id="tspan4122">9</tspan></text>
</g></g><g
       id="g4124"><g
         id="g4126"
         clip-path="url(#clipPath4128)"><text
           transform="matrix(1,0,0,-1,615.19,418.27)"
           style="font-variant:normal;font-weight:normal;font-size:21.95999908px;font-family:'Braille Français';-inkscape-font-specification:'Braille Français';writing-mode:lr-tb;fill:#000000;fill-opacity:1;fill-rule:nonzero;stroke:none"
           id="text4132"><tspan
             x="0 15.87708 31.75416 47.631241 63.5742 79.451279"
             y="0"
             sodipodi:role="line"
             id="tspan4134">uvre, </tspan></text>
</g></g><g
       id="g4136"><g
         id="g4138"
         clip-path="url(#clipPath4140)"><text
           transform="matrix(1,0,0,-1,591.43,388.51)"
           style="font-variant:normal;font-weight:normal;font-size:21.95999908px;font-family:'Braille Français';-inkscape-font-specification:'Braille Français';writing-mode:lr-tb;fill:#000000;fill-opacity:1;fill-rule:nonzero;stroke:none"
           id="text4144"><tspan
             x="0 15.87708 31.68828 47.631241 63.50832 79.385399 95.262482 111.20544"
             y="0"
             sodipodi:role="line"
             id="tspan4146">auteur, </tspan></text>
</g></g><g
       id="g4148"><g
         id="g4150"
         clip-path="url(#clipPath4152)"><text
           transform="matrix(1,0,0,-1,615.19,358.49)"
           style="font-variant:normal;font-weight:normal;font-size:21.95999908px;font-family:'Braille Français';-inkscape-font-specification:'Braille Français';writing-mode:lr-tb;fill:#000000;fill-opacity:1;fill-rule:nonzero;stroke:none"
           id="text4156"><tspan
             x="0 15.87708 31.68828 47.631241"
             y="0"
             sodipodi:role="line"
             id="tspan4158">date</tspan></text>
</g></g><g
       id="g4160"><g
         id="g4162"
         clip-path="url(#clipPath4164)" /></g><g
       id="g4168"><g
         id="g4170"
         clip-path="url(#clipPath4172)" /></g><path
       d="m 939,593.72 217.4,0 0,92.6 -217.4,0 0,-92.6 z"
       style="fill:#ffffff;fill-opacity:1;fill-rule:evenodd;stroke:none"
       id="path4176"
       inkscape:connector-curvature="0" /><path
       d="m 939,593.72 217.4,0 0,92.6 -217.4,0 0,-92.6 z"
       style="fill:none;stroke:#000000;stroke-width:2;stroke-linecap:round;stroke-linejoin:miter;stroke-miterlimit:8;stroke-dasharray:none;stroke-opacity:1"
       id="path4178"
       inkscape:connector-curvature="0" /><g
       id="g4180"><g
         id="g4182"
         clip-path="url(#clipPath4184)"><text
           transform="matrix(1,0,0,-1,992.16,648.58)"
           style="font-variant:normal;font-weight:normal;font-size:21.95999908px;font-family:'Braille Français';-inkscape-font-specification:'Braille Français';writing-mode:lr-tb;fill:#000000;fill-opacity:1;fill-rule:nonzero;stroke:none"
           id="text4188"><tspan
             x="0 15.87708 31.68828 47.631241 63.50832 79.385399 95.262482"
             y="0"
             sodipodi:role="line"
             id="tspan4190">Courant</tspan></text>
</g></g><g
       id="g4192"><g
         id="g4194"
         clip-path="url(#clipPath4196)" /></g><g
       id="g4200"><g
         id="g4202"
         clip-path="url(#clipPath4204)"><text
           transform="matrix(1,0,0,-1,968.26,618.82)"
           style="font-variant:normal;font-weight:normal;font-size:21.95999908px;font-family:'Braille Français';-inkscape-font-specification:'Braille Français';writing-mode:lr-tb;fill:#000000;fill-opacity:1;fill-rule:nonzero;stroke:none"
           id="text4208"><tspan
             x="0 15.87708 31.68828 47.631241 63.50832 79.385399 95.262482 111.20544 127.08252 142.89372"
             y="0"
             sodipodi:role="line"
             id="tspan4210">littéraire</tspan></text>
</g></g><g
       id="g4212"><g
         id="g4214"
         clip-path="url(#clipPath4216)" /></g><path
       d="m 503.45,593.72 286.95,0 0,58.65 -286.95,0 0,-58.65 z"
       style="fill:#ffffff;fill-opacity:1;fill-rule:evenodd;stroke:none"
       id="path4220"
       inkscape:connector-curvature="0" /><path
       d="m 503.45,593.72 286.95,0 0,58.65 -286.95,0 0,-58.65 z"
       style="fill:none;stroke:#000000;stroke-width:2;stroke-linecap:round;stroke-linejoin:miter;stroke-miterlimit:8;stroke-dasharray:none;stroke-opacity:1"
       id="path4222"
       inkscape:connector-curvature="0" /><g
       id="g4224"><g
         id="g4226"
         clip-path="url(#clipPath4228)"><text
           transform="matrix(1,0,0,-1,535.73,614.5)"
           style="font-variant:normal;font-weight:normal;font-size:21.95999908px;font-family:'Braille Français';-inkscape-font-specification:'Braille Français';writing-mode:lr-tb;fill:#000000;fill-opacity:1;fill-rule:nonzero;stroke:none"
           id="text4232"><tspan
             x="0 15.87708 31.68828 47.631241 63.50832 79.385399 95.262482 111.20544 127.08252 142.89372 158.83669 174.71376 190.59084 206.46793"
             y="0"
             sodipodi:role="line"
             id="tspan4234">visée du texte</tspan></text>
</g></g><g
       id="g4236"><g
         id="g4238"
         clip-path="url(#clipPath4240)" /></g><g
       id="g4244"><path
         d="m 646.9,508.62 -0.1,77.4"
         style="fill:none;stroke:#000000;stroke-width:2;stroke-linecap:butt;stroke-linejoin:round;stroke-miterlimit:8;stroke-dasharray:2, 2;stroke-dashoffset:0;stroke-opacity:1"
         id="path4246"
         inkscape:connector-curvature="0" /></g><g
       id="g4248"><path
         d="m 647.05,302.52 0,-78.6"
         style="fill:none;stroke:#000000;stroke-width:2;stroke-linecap:butt;stroke-linejoin:round;stroke-miterlimit:8;stroke-dasharray:2, 2;stroke-dashoffset:0;stroke-opacity:1"
         id="path4250"
         inkscape:connector-curvature="0" /></g><g
       id="g4252"><path
         d="m 520.35,407.37 -151.55,0"
         style="fill:none;stroke:#000000;stroke-width:2;stroke-linecap:butt;stroke-linejoin:round;stroke-miterlimit:8;stroke-dasharray:2, 2;stroke-dashoffset:0;stroke-opacity:1"
         id="path4254"
         inkscape:connector-curvature="0" /></g><g
       id="g4256"><path
         d="M 547.65,470.57 370,589.27"
         style="fill:none;stroke:#000000;stroke-width:2.25;stroke-linecap:butt;stroke-linejoin:round;stroke-miterlimit:8;stroke-dasharray:2.25, 2.25;stroke-dashoffset:0;stroke-opacity:1"
         id="path4258"
         inkscape:connector-curvature="0" /></g><path
       d="m 522.55,150.47 248.8,0 0,63.15 -248.8,0 0,-63.15 z"
       style="fill:#ffffff;fill-opacity:1;fill-rule:evenodd;stroke:none"
       id="path4260"
       inkscape:connector-curvature="0" /><path
       d="m 522.55,150.47 248.8,0 0,63.15 -248.8,0 0,-63.15 z"
       style="fill:none;stroke:#000000;stroke-width:2;stroke-linecap:round;stroke-linejoin:miter;stroke-miterlimit:8;stroke-dasharray:none;stroke-opacity:1"
       id="path4262"
       inkscape:connector-curvature="0" /><g
       id="g4264"><g
         id="g4266"
         clip-path="url(#clipPath4268)"><text
           transform="matrix(1,0,0,-1,543.67,175.7)"
           style="font-variant:normal;font-weight:normal;font-size:21.95999908px;font-family:'Braille Français';-inkscape-font-specification:'Braille Français';writing-mode:lr-tb;fill:#000000;fill-opacity:1;fill-rule:nonzero;stroke:none"
           id="text4272"><tspan
             x="0 15.87708 31.68828 47.631241 63.50832 79.385399 95.262482 111.20544 127.08252 142.89372 158.83669 174.71376 190.59084"
             y="0"
             sodipodi:role="line"
             id="tspan4274">Type de texte</tspan></text>
</g></g><g
       id="g4276"><g
         id="g4278"
         clip-path="url(#clipPath4280)" /></g><g
       id="g4284"><g
         id="g4286"
         clip-path="url(#clipPath4288)" /></g><path
       d="m 939,153.17 150.8,0 0,60.45 -150.8,0 0,-60.45 z"
       style="fill:#ffffff;fill-opacity:1;fill-rule:evenodd;stroke:none"
       id="path4292"
       inkscape:connector-curvature="0" /><path
       d="m 939,153.17 150.8,0 0,60.45 -150.8,0 0,-60.45 z"
       style="fill:none;stroke:#000000;stroke-width:2;stroke-linecap:round;stroke-linejoin:miter;stroke-miterlimit:8;stroke-dasharray:none;stroke-opacity:1"
       id="path4294"
       inkscape:connector-curvature="0" /><g
       id="g4296"><g
         id="g4298"
         clip-path="url(#clipPath4300)"><text
           transform="matrix(1,0,0,-1,974.74,175.7)"
           style="font-variant:normal;font-weight:normal;font-size:21.95999908px;font-family:'Braille Français';-inkscape-font-specification:'Braille Français';writing-mode:lr-tb;fill:#000000;fill-opacity:1;fill-rule:nonzero;stroke:none"
           id="text4304"><tspan
             x="0 15.87708 31.68828 47.631241 63.50832"
             y="0"
             sodipodi:role="line"
             id="tspan4306">Genre</tspan></text>
</g></g><g
       id="g4308"><g
         id="g4310"
         clip-path="url(#clipPath4312)" /></g><g
       id="g4316"><g
         id="g4318"
         clip-path="url(#clipPath4320)" /></g><path
       d="m 204.55,593.72 159.1,0 0,59.35 -159.1,0 0,-59.35 z"
       style="fill:#ffffff;fill-opacity:1;fill-rule:evenodd;stroke:none"
       id="path4324"
       inkscape:connector-curvature="0" /><path
       d="m 204.55,593.72 159.1,0 0,59.35 -159.1,0 0,-59.35 z"
       style="fill:none;stroke:#000000;stroke-width:2;stroke-linecap:round;stroke-linejoin:miter;stroke-miterlimit:8;stroke-dasharray:none;stroke-opacity:1"
       id="path4326"
       inkscape:connector-curvature="0" /><g
       id="g4328"><g
         id="g4330"
         clip-path="url(#clipPath4332)"><text
           transform="matrix(1,0,0,-1,244.34,615.22)"
           style="font-variant:normal;font-weight:normal;font-size:21.95999908px;font-family:'Braille Français';-inkscape-font-specification:'Braille Français';writing-mode:lr-tb;fill:#000000;fill-opacity:1;fill-rule:nonzero;stroke:none"
           id="text4336"><tspan
             x="0 15.87708 31.68828 47.631241 63.50832"
             y="0"
             sodipodi:role="line"
             id="tspan4338">Thème</tspan></text>
</g></g><g
       id="g4340"><g
         id="g4342"
         clip-path="url(#clipPath4344)" /></g><g
       id="g4348"><g
         id="g4350"
         clip-path="url(#clipPath4352)" /></g><path
       d="m 157.45,359.57 206.2,0 0,95.8 -206.2,0 0,-95.8 z"
       style="fill:#ffffff;fill-opacity:1;fill-rule:evenodd;stroke:none"
       id="path4356"
       inkscape:connector-curvature="0" /><path
       d="m 157.45,359.57 206.2,0 0,95.8 -206.2,0 0,-95.8 z"
       style="fill:none;stroke:#000000;stroke-width:2;stroke-linecap:round;stroke-linejoin:miter;stroke-miterlimit:8;stroke-dasharray:none;stroke-opacity:1"
       id="path4358"
       inkscape:connector-curvature="0" /><g
       id="g4360"><g
         id="g4362"
         clip-path="url(#clipPath4364)"><text
           transform="matrix(1,0,0,-1,196.94,417.55)"
           style="font-variant:normal;font-weight:normal;font-size:21.95999908px;font-family:'Braille Français';-inkscape-font-specification:'Braille Français';writing-mode:lr-tb;fill:#000000;fill-opacity:1;fill-rule:nonzero;stroke:none"
           id="text4368"><tspan
             x="0 15.87708 31.68828 47.631241 63.50832 79.385399 95.262482 111.20544 127.08252"
             y="0"
             sodipodi:role="line"
             id="tspan4370">Registre </tspan></text>
</g></g><g
       id="g4372"><g
         id="g4374"
         clip-path="url(#clipPath4376)"><text
           transform="matrix(1,0,0,-1,196.94,387.55)"
           style="font-variant:normal;font-weight:normal;font-size:21.95999908px;font-family:'Braille Français';-inkscape-font-specification:'Braille Français';writing-mode:lr-tb;fill:#000000;fill-opacity:1;fill-rule:nonzero;stroke:none"
           id="text4380"><tspan
             x="0 15.87708 31.68828 47.631241 63.50832 79.385399 95.262482"
             y="0"
             sodipodi:role="line"
             id="tspan4382">dominan</tspan></text>
</g></g><g
       id="g4384"><g
         id="g4386"
         clip-path="url(#clipPath4388)"><text
           transform="matrix(1,0,0,-1,308.18,387.55)"
           style="font-variant:normal;font-weight:normal;font-size:21.95999908px;font-family:'Braille Français';-inkscape-font-specification:'Braille Français';writing-mode:lr-tb;fill:#000000;fill-opacity:1;fill-rule:nonzero;stroke:none"
           id="text4392"><tspan
             x="0"
             y="0"
             id="tspan4394">t</tspan></text>
</g></g><g
       id="g4396"><g
         id="g4398"
         clip-path="url(#clipPath4400)" /></g><g
       id="g4404"><g
         id="g4406"
         clip-path="url(#clipPath4408)" /></g><path
       d="m 97.65,112.07 266,0 0,101.55 -266,0 0,-101.55 z"
       style="fill:#ffffff;fill-opacity:1;fill-rule:evenodd;stroke:none"
       id="path4412"
       inkscape:connector-curvature="0" /><path
       d="m 97.65,112.07 266,0 0,101.55 -266,0 0,-101.55 z"
       style="fill:none;stroke:#000000;stroke-width:2;stroke-linecap:round;stroke-linejoin:miter;stroke-miterlimit:8;stroke-dasharray:none;stroke-opacity:1"
       id="path4414"
       inkscape:connector-curvature="0" /><g
       id="g4416"><g
         id="g4418"
         clip-path="url(#clipPath4420)"><text
           transform="matrix(1,0,0,-1,159.14,175.82)"
           style="font-variant:normal;font-weight:normal;font-size:21.95999908px;font-family:'Braille Français';-inkscape-font-specification:'Braille Français';writing-mode:lr-tb;fill:#000000;fill-opacity:1;fill-rule:nonzero;stroke:none"
           id="text4424"><tspan
             x="0 15.87708 31.68828 47.631241 63.50832 79.385399 95.262482 111.20544 127.08252 142.89372"
             y="0"
             sodipodi:role="line"
             id="tspan4426">Situation </tspan></text>
</g></g><g
       id="g4428"><g
         id="g4430"
         clip-path="url(#clipPath4432)"><text
           transform="matrix(1,0,0,-1,127.34,145.94)"
           style="font-variant:normal;font-weight:normal;font-size:21.95999908px;font-family:'Braille Français';-inkscape-font-specification:'Braille Français';writing-mode:lr-tb;fill:#000000;fill-opacity:1;fill-rule:nonzero;stroke:none"
           id="text4436"><tspan
             x="0 15.87708 31.68828 47.631241 63.50832 79.385399 95.262482 111.20544 127.08252 142.89372 158.83669 174.71376 190.59084"
             y="0"
             sodipodi:role="line"
             id="tspan4438">d'énonciation</tspan></text>
</g></g><g
       id="g4440"><g
         id="g4442"
         clip-path="url(#clipPath4444)" /></g><g
       id="g4448"><path
         d="M 926.35,589.27 748.7,470.57"
         style="fill:none;stroke:#000000;stroke-width:2.25;stroke-linecap:butt;stroke-linejoin:round;stroke-miterlimit:8;stroke-dasharray:2.25, 2.25;stroke-dashoffset:0;stroke-opacity:1"
         id="path4450"
         inkscape:connector-curvature="0" /></g><g
       id="g4452"><path
         d="M 547.65,335.92 370,217.22"
         style="fill:none;stroke:#000000;stroke-width:2.25;stroke-linecap:butt;stroke-linejoin:round;stroke-miterlimit:8;stroke-dasharray:2.25, 2.25;stroke-dashoffset:0;stroke-opacity:1"
         id="path4454"
         inkscape:connector-curvature="0" /></g><g
       id="g4456"><path
         d="M 926.35,217.22 748.7,335.92"
         style="fill:none;stroke:#000000;stroke-width:2.25;stroke-linecap:butt;stroke-linejoin:round;stroke-miterlimit:8;stroke-dasharray:2.25, 2.25;stroke-dashoffset:0;stroke-opacity:1"
         id="path4458"
         inkscape:connector-curvature="0" /></g><text
       xml:space="preserve"
       style="font-style:normal;font-variant:normal;font-weight:bold;font-stretch:normal;font-size:32px;line-height:125%;font-family:Arial;-inkscape-font-specification:'Arial, Bold';text-align:start;letter-spacing:0px;word-spacing:0px;writing-mode:lr-tb;text-anchor:start;fill:#ff0000;fill-opacity:1;stroke:none;stroke-width:1px;stroke-linecap:butt;stroke-linejoin:miter;stroke-opacity:1"
       x="379.56577"
       y="-786.12994"
       id="text4460"
       sodipodi:linespacing="125%"
       transform="scale(1,-1)"><tspan
         sodipodi:role="line"
         id="tspan4462"
         x="379.56577"
         y="-786.12994">Définition littéraire d'un texte</tspan></text>
</g><g
     inkscape:groupmode="layer"
     id="layer1"
     inkscape:label="Interactions"
     style="display:inline"><rect
       style="fill:none;stroke:#000080;stroke-width:5.05025959;stroke-miterlimit:4;stroke-dasharray:none;stroke-opacity:1"
       id="rect4465"
       width="682.52539"
       height="136.07513"
       x="402.38849"
       y="14.441647" /><rect
       style="display:inline;fill:none;stroke:#000080;stroke-width:4.4449749;stroke-miterlimit:4;stroke-dasharray:none;stroke-opacity:1"
       id="rect4465-1"
       width="300.39676"
       height="239.50446"
       x="660.01691"
       y="426.14417" /></g></svg>