<svg xmlns="http://www.w3.org/2000/svg" width="420mm" height="297mm" viewBox="0 0 1484.0989399293287 1049.469964664311"><defs><pattern id="rzpmu" patternUnits="userSpaceOnUse" width="20" height="20"><path d="M 10, 0 l 0, 20" stroke-width="2" shape-rendering="auto" stroke="#343434" stroke-linecap="square"/></pattern></defs><defs><pattern id="aumfy" patternUnits="userSpaceOnUse" width="20" height="20"><path d="M 0,0 l 20,20 M -5,15 l 10,10&#10;M 15,-5 l 10,10" stroke-width="2" shape-rendering="auto" stroke="#343434" stroke-linecap="square"/></pattern></defs><defs><pattern id="cbzch" patternUnits="userSpaceOnUse" width="20" height="20"><path d="M 0,20 l 20,-20 M -5,5 l 10,-10&#10;M 15,25 l 10,-10" stroke-width="2" shape-rendering="auto" stroke="#343434" stroke-linecap="square"/></pattern></defs><defs><pattern id="gdtkr" patternUnits="userSpaceOnUse" width="10" height="10"><path d="M 5, 0 l 0, 10" stroke-width="2" shape-rendering="auto" stroke="#343434" stroke-linecap="square"/></pattern></defs><defs><pattern id="nlduz" patternUnits="userSpaceOnUse" width="10" height="10"><path d="M 0,0 l 10,10 M -2.5,7.5 l 5,5&#10;M 7.5,-2.5 l 5,5" stroke-width="2" shape-rendering="auto" stroke="#343434" stroke-linecap="square"/></pattern></defs><defs><pattern id="poffk" patternUnits="userSpaceOnUse" width="10" height="10"><path d="M 0,10 l 10,-10 M -2.5,2.5 l 5,-5&#10;M 7.5,12.5 l 5,-5" stroke-width="2" shape-rendering="auto" stroke="#343434" stroke-linecap="square"/></pattern></defs><defs><pattern id="abwuu" patternUnits="userSpaceOnUse" width="20" height="20"><path d="M 0 10 c 2.5 -5 , 7.5 -5 , 10 0&#10;c 2.5 5 , 7.5 5 , 10 0 M -10 10&#10;c 2.5 5 , 7.5 5 , 10 0 M 20 10&#10;c 2.5 -5 , 7.5 -5 , 10 0" fill="transparent" stroke-width="2" shape-rendering="auto" stroke="#343434" stroke-linecap="square"/></pattern></defs><defs><pattern id="ketxu" patternUnits="userSpaceOnUse" width="20" height="20"><circle cx="10" cy="10" r="2" fill="#343434" stroke="#343434" stroke-width="0"/><circle cx="0" cy="0" r="2" fill="#343434" stroke="#343434" stroke-width="0"/><circle cx="0" cy="20" r="2" fill="#343434" stroke="#343434" stroke-width="0"/><circle cx="20" cy="0" r="2" fill="#343434" stroke="#343434" stroke-width="0"/><circle cx="20" cy="20" r="2" fill="#343434" stroke="#343434" stroke-width="0"/></pattern></defs><defs><pattern id="mnrnp" patternUnits="userSpaceOnUse" width="10" height="10"><rect width="10" height="10" fill="white"/><circle cx="5" cy="5" r="1" fill="#343434" stroke="#343434" stroke-width="1.1"/><circle cx="0" cy="0" r="1" fill="#343434" stroke="#343434" stroke-width="1.1"/><circle cx="0" cy="10" r="1" fill="#343434" stroke="#343434" stroke-width="1.1"/><circle cx="10" cy="0" r="1" fill="#343434" stroke="#343434" stroke-width="1.1"/><circle cx="10" cy="10" r="1" fill="#343434" stroke="#343434" stroke-width="1.1"/></pattern></defs><defs><pattern id="kwdgy" patternUnits="userSpaceOnUse" width="10" height="10"><circle cx="5" cy="5" r="1" fill="#343434" stroke="#343434" stroke-width="1.1"/><circle cx="0" cy="0" r="1" fill="#343434" stroke="#343434" stroke-width="1.1"/><circle cx="0" cy="10" r="1" fill="#343434" stroke="#343434" stroke-width="1.1"/><circle cx="10" cy="0" r="1" fill="#343434" stroke="#343434" stroke-width="1.1"/><circle cx="10" cy="10" r="1" fill="#343434" stroke="#343434" stroke-width="1.1"/></pattern></defs><defs><pattern id="trfod" patternUnits="userSpaceOnUse" width="10" height="10"><circle cx="5" cy="5" r="1" fill="#343434" stroke="#343434" stroke-width="1.3"/><circle cx="0" cy="0" r="1" fill="#343434" stroke="#343434" stroke-width="1.3"/><circle cx="0" cy="10" r="1" fill="#343434" stroke="#343434" stroke-width="1.3"/><circle cx="10" cy="0" r="1" fill="#343434" stroke="#343434" stroke-width="1.3"/><circle cx="10" cy="10" r="1" fill="#343434" stroke="#343434" stroke-width="1.3"/></pattern></defs><defs><pattern id="jxdna" patternUnits="userSpaceOnUse" width="20" height="20"><circle cx="10" cy="10" r="4" fill="grey" stroke="#343434" stroke-width="0"/><circle cx="0" cy="0" r="4" fill="grey" stroke="#343434" stroke-width="0"/><circle cx="0" cy="20" r="4" fill="grey" stroke="#343434" stroke-width="0"/><circle cx="20" cy="0" r="4" fill="grey" stroke="#343434" stroke-width="0"/><circle cx="20" cy="20" r="4" fill="grey" stroke="#343434" stroke-width="0"/></pattern></defs><defs><pattern id="jrdhe" patternUnits="userSpaceOnUse" width="20" height="20"><path d="M 0,20 l 20,-20 M -5,5 l 10,-10&#10;M 15,25 l 10,-10" stroke-width="1" shape-rendering="auto" stroke="#343434" stroke-linecap="square"/><path d="M 0,0 l 20,20 M -5,15 l 10,10&#10;M 15,-5 l 10,10" stroke-width="1" shape-rendering="auto" stroke="#343434" stroke-linecap="square"/></pattern></defs><defs><pattern id="jiniw" patternUnits="userSpaceOnUse" width="20" height="20"><path d="M 5,15l5,-10l5,10" fill="transparent" stroke-width="2" shape-rendering="auto" stroke="#343434" stroke-linecap="square"/></pattern></defs><defs><pattern id="wcfsg" patternUnits="userSpaceOnUse" width="20" height="20"><path d="M 5,5l10,10M15,5l10,-10&#10;M5,15l-10,10M15,25l10,-10&#10;M-5,5l10,-10" fill="transparent" stroke-width="2" shape-rendering="auto" stroke="#343434" stroke-linecap="square"/></pattern></defs><defs><pattern id="dxmoa" patternUnits="userSpaceOnUse" width="20" height="20"><path d="M 0,20 l 20,-20 M -5,5 l 10,-10&#10;M 15,25 l 10,-10" stroke-width="0" shape-rendering="auto" stroke="#343434" stroke-linecap="square"/></pattern></defs><defs><pattern id="kyxdk" patternUnits="userSpaceOnUse" width="20" height="20"><rect width="20" height="20" fill="white"/><path d="M 10, 0 l 0, 20" stroke-width="2" shape-rendering="auto" stroke="#343434" stroke-linecap="square"/></pattern></defs><defs><pattern id="egxyl" patternUnits="userSpaceOnUse" width="20" height="20"><rect width="20" height="20" fill="white"/><path d="M 0,0 l 20,20 M -5,15 l 10,10&#10;M 15,-5 l 10,10" stroke-width="2" shape-rendering="auto" stroke="#343434" stroke-linecap="square"/></pattern></defs><defs><pattern id="yoakv" patternUnits="userSpaceOnUse" width="20" height="20"><rect width="20" height="20" fill="white"/><path d="M 0,20 l 20,-20 M -5,5 l 10,-10&#10;M 15,25 l 10,-10" stroke-width="2" shape-rendering="auto" stroke="#343434" stroke-linecap="square"/></pattern></defs><defs><pattern id="ljfrh" patternUnits="userSpaceOnUse" width="10" height="10"><rect width="10" height="10" fill="white"/><path d="M 5, 0 l 0, 10" stroke-width="2" shape-rendering="auto" stroke="#343434" stroke-linecap="square"/></pattern></defs><defs><pattern id="pwzji" patternUnits="userSpaceOnUse" width="10" height="10"><rect width="10" height="10" fill="white"/><path d="M 0,0 l 10,10 M -2.5,7.5 l 5,5&#10;M 7.5,-2.5 l 5,5" stroke-width="2" shape-rendering="auto" stroke="#343434" stroke-linecap="square"/></pattern></defs><defs><pattern id="egsnz" patternUnits="userSpaceOnUse" width="10" height="10"><rect width="10" height="10" fill="white"/><path d="M 0,10 l 10,-10 M -2.5,2.5 l 5,-5&#10;M 7.5,12.5 l 5,-5" stroke-width="2" shape-rendering="auto" stroke="#343434" stroke-linecap="square"/></pattern></defs><defs><pattern id="jctjj" patternUnits="userSpaceOnUse" width="20" height="20"><rect width="20" height="20" fill="white"/><path d="M 0 10 c 2.5 -5 , 7.5 -5 , 10 0&#10;c 2.5 5 , 7.5 5 , 10 0 M -10 10&#10;c 2.5 5 , 7.5 5 , 10 0 M 20 10&#10;c 2.5 -5 , 7.5 -5 , 10 0" fill="transparent" stroke-width="2" shape-rendering="auto" stroke="#343434" stroke-linecap="square"/></pattern></defs><defs><pattern id="ovpqk" patternUnits="userSpaceOnUse" width="20" height="20"><rect width="20" height="20" fill="white"/><circle cx="10" cy="10" r="2" fill="#343434" stroke="#343434" stroke-width="0"/><circle cx="0" cy="0" r="2" fill="#343434" stroke="#343434" stroke-width="0"/><circle cx="0" cy="20" r="2" fill="#343434" stroke="#343434" stroke-width="0"/><circle cx="20" cy="0" r="2" fill="#343434" stroke="#343434" stroke-width="0"/><circle cx="20" cy="20" r="2" fill="#343434" stroke="#343434" stroke-width="0"/></pattern></defs><defs><pattern id="yvlsj" patternUnits="userSpaceOnUse" width="10" height="10"><rect width="10" height="10" fill="white"/><circle cx="5" cy="5" r="1" fill="#343434" stroke="#343434" stroke-width="1.1"/><circle cx="0" cy="0" r="1" fill="#343434" stroke="#343434" stroke-width="1.1"/><circle cx="0" cy="10" r="1" fill="#343434" stroke="#343434" stroke-width="1.1"/><circle cx="10" cy="0" r="1" fill="#343434" stroke="#343434" stroke-width="1.1"/><circle cx="10" cy="10" r="1" fill="#343434" stroke="#343434" stroke-width="1.1"/></pattern></defs><defs><pattern id="ltpaf" patternUnits="userSpaceOnUse" width="10" height="10"><rect width="10" height="10" fill="white"/><circle cx="5" cy="5" r="1" fill="#343434" stroke="#343434" stroke-width="1.1"/><circle cx="0" cy="0" r="1" fill="#343434" stroke="#343434" stroke-width="1.1"/><circle cx="0" cy="10" r="1" fill="#343434" stroke="#343434" stroke-width="1.1"/><circle cx="10" cy="0" r="1" fill="#343434" stroke="#343434" stroke-width="1.1"/><circle cx="10" cy="10" r="1" fill="#343434" stroke="#343434" stroke-width="1.1"/></pattern></defs><defs><pattern id="lpgjd" patternUnits="userSpaceOnUse" width="10" height="10"><rect width="10" height="10" fill="white"/><circle cx="5" cy="5" r="1" fill="#343434" stroke="#343434" stroke-width="1.3"/><circle cx="0" cy="0" r="1" fill="#343434" stroke="#343434" stroke-width="1.3"/><circle cx="0" cy="10" r="1" fill="#343434" stroke="#343434" stroke-width="1.3"/><circle cx="10" cy="0" r="1" fill="#343434" stroke="#343434" stroke-width="1.3"/><circle cx="10" cy="10" r="1" fill="#343434" stroke="#343434" stroke-width="1.3"/></pattern></defs><defs><pattern id="jhyxu" patternUnits="userSpaceOnUse" width="20" height="20"><rect width="20" height="20" fill="white"/><circle cx="10" cy="10" r="4" fill="grey" stroke="#343434" stroke-width="0"/><circle cx="0" cy="0" r="4" fill="grey" stroke="#343434" stroke-width="0"/><circle cx="0" cy="20" r="4" fill="grey" stroke="#343434" stroke-width="0"/><circle cx="20" cy="0" r="4" fill="grey" stroke="#343434" stroke-width="0"/><circle cx="20" cy="20" r="4" fill="grey" stroke="#343434" stroke-width="0"/></pattern></defs><defs><pattern id="dtboa" patternUnits="userSpaceOnUse" width="20" height="20"><rect width="20" height="20" fill="white"/><path d="M 0,20 l 20,-20 M -5,5 l 10,-10&#10;M 15,25 l 10,-10" stroke-width="1" shape-rendering="auto" stroke="#343434" stroke-linecap="square"/><path d="M 0,0 l 20,20 M -5,15 l 10,10&#10;M 15,-5 l 10,10" stroke-width="1" shape-rendering="auto" stroke="#343434" stroke-linecap="square"/></pattern></defs><defs><pattern id="cumol" patternUnits="userSpaceOnUse" width="20" height="20"><rect width="20" height="20" fill="white"/><path d="M 5,15l5,-10l5,10" fill="transparent" stroke-width="2" shape-rendering="auto" stroke="#343434" stroke-linecap="square"/></pattern></defs><defs><pattern id="yddrv" patternUnits="userSpaceOnUse" width="20" height="20"><rect width="20" height="20" fill="white"/><path d="M 5,5l10,10M15,5l10,-10&#10;M5,15l-10,10M15,25l10,-10&#10;M-5,5l10,-10" fill="transparent" stroke-width="2" shape-rendering="auto" stroke="#343434" stroke-linecap="square"/></pattern></defs><defs><pattern id="ykeap" patternUnits="userSpaceOnUse" width="20" height="20"><rect width="20" height="20" fill="white"/><path d="M 0,20 l 20,-20 M -5,5 l 10,-10&#10;M 15,25 l 10,-10" stroke-width="0" shape-rendering="auto" stroke="#343434" stroke-linecap="square"/></pattern></defs><defs><pattern id="wcwqh" patternUnits="userSpaceOnUse" width="20" height="20"><rect width="20" height="20" fill="blue"/><path d="M 10, 0 l 0, 20" stroke-width="2" shape-rendering="auto" stroke="#343434" stroke-linecap="square"/></pattern></defs><defs><pattern id="lhhjq" patternUnits="userSpaceOnUse" width="20" height="20"><rect width="20" height="20" fill="blue"/><path d="M 0,0 l 20,20 M -5,15 l 10,10&#10;M 15,-5 l 10,10" stroke-width="2" shape-rendering="auto" stroke="#343434" stroke-linecap="square"/></pattern></defs><defs><pattern id="iyyoa" patternUnits="userSpaceOnUse" width="20" height="20"><rect width="20" height="20" fill="blue"/><path d="M 0,20 l 20,-20 M -5,5 l 10,-10&#10;M 15,25 l 10,-10" stroke-width="2" shape-rendering="auto" stroke="#343434" stroke-linecap="square"/></pattern></defs><defs><pattern id="otple" patternUnits="userSpaceOnUse" width="10" height="10"><rect width="10" height="10" fill="blue"/><path d="M 5, 0 l 0, 10" stroke-width="2" shape-rendering="auto" stroke="#343434" stroke-linecap="square"/></pattern></defs><defs><pattern id="dbudb" patternUnits="userSpaceOnUse" width="10" height="10"><rect width="10" height="10" fill="blue"/><path d="M 0,0 l 10,10 M -2.5,7.5 l 5,5&#10;M 7.5,-2.5 l 5,5" stroke-width="2" shape-rendering="auto" stroke="#343434" stroke-linecap="square"/></pattern></defs><defs><pattern id="lvncr" patternUnits="userSpaceOnUse" width="10" height="10"><rect width="10" height="10" fill="blue"/><path d="M 0,10 l 10,-10 M -2.5,2.5 l 5,-5&#10;M 7.5,12.5 l 5,-5" stroke-width="2" shape-rendering="auto" stroke="#343434" stroke-linecap="square"/></pattern></defs><defs><pattern id="iniwt" patternUnits="userSpaceOnUse" width="20" height="20"><rect width="20" height="20" fill="blue"/><path d="M 0 10 c 2.5 -5 , 7.5 -5 , 10 0&#10;c 2.5 5 , 7.5 5 , 10 0 M -10 10&#10;c 2.5 5 , 7.5 5 , 10 0 M 20 10&#10;c 2.5 -5 , 7.5 -5 , 10 0" fill="transparent" stroke-width="2" shape-rendering="auto" stroke="#343434" stroke-linecap="square"/></pattern></defs><defs><pattern id="oarbw" patternUnits="userSpaceOnUse" width="20" height="20"><rect width="20" height="20" fill="blue"/><circle cx="10" cy="10" r="2" fill="#343434" stroke="#343434" stroke-width="0"/><circle cx="0" cy="0" r="2" fill="#343434" stroke="#343434" stroke-width="0"/><circle cx="0" cy="20" r="2" fill="#343434" stroke="#343434" stroke-width="0"/><circle cx="20" cy="0" r="2" fill="#343434" stroke="#343434" stroke-width="0"/><circle cx="20" cy="20" r="2" fill="#343434" stroke="#343434" stroke-width="0"/></pattern></defs><defs><pattern id="qhnor" patternUnits="userSpaceOnUse" width="10" height="10"><rect width="10" height="10" fill="blue"/><circle cx="5" cy="5" r="1" fill="#343434" stroke="#343434" stroke-width="1.1"/><circle cx="0" cy="0" r="1" fill="#343434" stroke="#343434" stroke-width="1.1"/><circle cx="0" cy="10" r="1" fill="#343434" stroke="#343434" stroke-width="1.1"/><circle cx="10" cy="0" r="1" fill="#343434" stroke="#343434" stroke-width="1.1"/><circle cx="10" cy="10" r="1" fill="#343434" stroke="#343434" stroke-width="1.1"/></pattern></defs><defs><pattern id="zvqaz" patternUnits="userSpaceOnUse" width="10" height="10"><rect width="10" height="10" fill="blue"/><circle cx="5" cy="5" r="1" fill="#343434" stroke="#343434" stroke-width="1.1"/><circle cx="0" cy="0" r="1" fill="#343434" stroke="#343434" stroke-width="1.1"/><circle cx="0" cy="10" r="1" fill="#343434" stroke="#343434" stroke-width="1.1"/><circle cx="10" cy="0" r="1" fill="#343434" stroke="#343434" stroke-width="1.1"/><circle cx="10" cy="10" r="1" fill="#343434" stroke="#343434" stroke-width="1.1"/></pattern></defs><defs><pattern id="iiknh" patternUnits="userSpaceOnUse" width="10" height="10"><rect width="10" height="10" fill="blue"/><circle cx="5" cy="5" r="1" fill="#343434" stroke="#343434" stroke-width="1.3"/><circle cx="0" cy="0" r="1" fill="#343434" stroke="#343434" stroke-width="1.3"/><circle cx="0" cy="10" r="1" fill="#343434" stroke="#343434" stroke-width="1.3"/><circle cx="10" cy="0" r="1" fill="#343434" stroke="#343434" stroke-width="1.3"/><circle cx="10" cy="10" r="1" fill="#343434" stroke="#343434" stroke-width="1.3"/></pattern></defs><defs><pattern id="osjoe" patternUnits="userSpaceOnUse" width="20" height="20"><rect width="20" height="20" fill="blue"/><circle cx="10" cy="10" r="4" fill="grey" stroke="#343434" stroke-width="0"/><circle cx="0" cy="0" r="4" fill="grey" stroke="#343434" stroke-width="0"/><circle cx="0" cy="20" r="4" fill="grey" stroke="#343434" stroke-width="0"/><circle cx="20" cy="0" r="4" fill="grey" stroke="#343434" stroke-width="0"/><circle cx="20" cy="20" r="4" fill="grey" stroke="#343434" stroke-width="0"/></pattern></defs><defs><pattern id="xdmkp" patternUnits="userSpaceOnUse" width="20" height="20"><rect width="20" height="20" fill="blue"/><path d="M 0,20 l 20,-20 M -5,5 l 10,-10&#10;M 15,25 l 10,-10" stroke-width="1" shape-rendering="auto" stroke="#343434" stroke-linecap="square"/><path d="M 0,0 l 20,20 M -5,15 l 10,10&#10;M 15,-5 l 10,10" stroke-width="1" shape-rendering="auto" stroke="#343434" stroke-linecap="square"/></pattern></defs><defs><pattern id="hlwrg" patternUnits="userSpaceOnUse" width="20" height="20"><rect width="20" height="20" fill="blue"/><path d="M 5,15l5,-10l5,10" fill="transparent" stroke-width="2" shape-rendering="auto" stroke="#343434" stroke-linecap="square"/></pattern></defs><defs><pattern id="tpjzj" patternUnits="userSpaceOnUse" width="20" height="20"><rect width="20" height="20" fill="blue"/><path d="M 5,5l10,10M15,5l10,-10&#10;M5,15l-10,10M15,25l10,-10&#10;M-5,5l10,-10" fill="transparent" stroke-width="2" shape-rendering="auto" stroke="#343434" stroke-linecap="square"/></pattern></defs><defs><pattern id="vxdtm" patternUnits="userSpaceOnUse" width="20" height="20"><rect width="20" height="20" fill="blue"/><path d="M 0,20 l 20,-20 M -5,5 l 10,-10&#10;M 15,25 l 10,-10" stroke-width="0" shape-rendering="auto" stroke="#343434" stroke-linecap="square"/></pattern></defs><defs><pattern id="kokuj" patternUnits="userSpaceOnUse" width="20" height="20"><rect width="20" height="20" fill="red"/><path d="M 10, 0 l 0, 20" stroke-width="2" shape-rendering="auto" stroke="#343434" stroke-linecap="square"/></pattern></defs><defs><pattern id="qlgtb" patternUnits="userSpaceOnUse" width="20" height="20"><rect width="20" height="20" fill="red"/><path d="M 0,0 l 20,20 M -5,15 l 10,10&#10;M 15,-5 l 10,10" stroke-width="2" shape-rendering="auto" stroke="#343434" stroke-linecap="square"/></pattern></defs><defs><pattern id="weqrw" patternUnits="userSpaceOnUse" width="20" height="20"><rect width="20" height="20" fill="red"/><path d="M 0,20 l 20,-20 M -5,5 l 10,-10&#10;M 15,25 l 10,-10" stroke-width="2" shape-rendering="auto" stroke="#343434" stroke-linecap="square"/></pattern></defs><defs><pattern id="asweb" patternUnits="userSpaceOnUse" width="10" height="10"><rect width="10" height="10" fill="red"/><path d="M 5, 0 l 0, 10" stroke-width="2" shape-rendering="auto" stroke="#343434" stroke-linecap="square"/></pattern></defs><defs><pattern id="akvvy" patternUnits="userSpaceOnUse" width="10" height="10"><rect width="10" height="10" fill="red"/><path d="M 0,0 l 10,10 M -2.5,7.5 l 5,5&#10;M 7.5,-2.5 l 5,5" stroke-width="2" shape-rendering="auto" stroke="#343434" stroke-linecap="square"/></pattern></defs><defs><pattern id="ftaqs" patternUnits="userSpaceOnUse" width="10" height="10"><rect width="10" height="10" fill="red"/><path d="M 0,10 l 10,-10 M -2.5,2.5 l 5,-5&#10;M 7.5,12.5 l 5,-5" stroke-width="2" shape-rendering="auto" stroke="#343434" stroke-linecap="square"/></pattern></defs><defs><pattern id="psagb" patternUnits="userSpaceOnUse" width="20" height="20"><rect width="20" height="20" fill="red"/><path d="M 0 10 c 2.5 -5 , 7.5 -5 , 10 0&#10;c 2.5 5 , 7.5 5 , 10 0 M -10 10&#10;c 2.5 5 , 7.5 5 , 10 0 M 20 10&#10;c 2.5 -5 , 7.5 -5 , 10 0" fill="transparent" stroke-width="2" shape-rendering="auto" stroke="#343434" stroke-linecap="square"/></pattern></defs><defs><pattern id="rloxu" patternUnits="userSpaceOnUse" width="20" height="20"><rect width="20" height="20" fill="red"/><circle cx="10" cy="10" r="2" fill="#343434" stroke="#343434" stroke-width="0"/><circle cx="0" cy="0" r="2" fill="#343434" stroke="#343434" stroke-width="0"/><circle cx="0" cy="20" r="2" fill="#343434" stroke="#343434" stroke-width="0"/><circle cx="20" cy="0" r="2" fill="#343434" stroke="#343434" stroke-width="0"/><circle cx="20" cy="20" r="2" fill="#343434" stroke="#343434" stroke-width="0"/></pattern></defs><defs><pattern id="tgcez" patternUnits="userSpaceOnUse" width="10" height="10"><rect width="10" height="10" fill="red"/><circle cx="5" cy="5" r="1" fill="#343434" stroke="#343434" stroke-width="1.1"/><circle cx="0" cy="0" r="1" fill="#343434" stroke="#343434" stroke-width="1.1"/><circle cx="0" cy="10" r="1" fill="#343434" stroke="#343434" stroke-width="1.1"/><circle cx="10" cy="0" r="1" fill="#343434" stroke="#343434" stroke-width="1.1"/><circle cx="10" cy="10" r="1" fill="#343434" stroke="#343434" stroke-width="1.1"/></pattern></defs><defs><pattern id="ihsxe" patternUnits="userSpaceOnUse" width="10" height="10"><rect width="10" height="10" fill="red"/><circle cx="5" cy="5" r="1" fill="#343434" stroke="#343434" stroke-width="1.1"/><circle cx="0" cy="0" r="1" fill="#343434" stroke="#343434" stroke-width="1.1"/><circle cx="0" cy="10" r="1" fill="#343434" stroke="#343434" stroke-width="1.1"/><circle cx="10" cy="0" r="1" fill="#343434" stroke="#343434" stroke-width="1.1"/><circle cx="10" cy="10" r="1" fill="#343434" stroke="#343434" stroke-width="1.1"/></pattern></defs><defs><pattern id="xhnyi" patternUnits="userSpaceOnUse" width="10" height="10"><rect width="10" height="10" fill="red"/><circle cx="5" cy="5" r="1" fill="#343434" stroke="#343434" stroke-width="1.3"/><circle cx="0" cy="0" r="1" fill="#343434" stroke="#343434" stroke-width="1.3"/><circle cx="0" cy="10" r="1" fill="#343434" stroke="#343434" stroke-width="1.3"/><circle cx="10" cy="0" r="1" fill="#343434" stroke="#343434" stroke-width="1.3"/><circle cx="10" cy="10" r="1" fill="#343434" stroke="#343434" stroke-width="1.3"/></pattern></defs><defs><pattern id="hjsqf" patternUnits="userSpaceOnUse" width="20" height="20"><rect width="20" height="20" fill="red"/><circle cx="10" cy="10" r="4" fill="grey" stroke="#343434" stroke-width="0"/><circle cx="0" cy="0" r="4" fill="grey" stroke="#343434" stroke-width="0"/><circle cx="0" cy="20" r="4" fill="grey" stroke="#343434" stroke-width="0"/><circle cx="20" cy="0" r="4" fill="grey" stroke="#343434" stroke-width="0"/><circle cx="20" cy="20" r="4" fill="grey" stroke="#343434" stroke-width="0"/></pattern></defs><defs><pattern id="lcqmh" patternUnits="userSpaceOnUse" width="20" height="20"><rect width="20" height="20" fill="red"/><path d="M 0,20 l 20,-20 M -5,5 l 10,-10&#10;M 15,25 l 10,-10" stroke-width="1" shape-rendering="auto" stroke="#343434" stroke-linecap="square"/><path d="M 0,0 l 20,20 M -5,15 l 10,10&#10;M 15,-5 l 10,10" stroke-width="1" shape-rendering="auto" stroke="#343434" stroke-linecap="square"/></pattern></defs><defs><pattern id="zvluv" patternUnits="userSpaceOnUse" width="20" height="20"><rect width="20" height="20" fill="red"/><path d="M 5,15l5,-10l5,10" fill="transparent" stroke-width="2" shape-rendering="auto" stroke="#343434" stroke-linecap="square"/></pattern></defs><defs><pattern id="wpqsq" patternUnits="userSpaceOnUse" width="20" height="20"><rect width="20" height="20" fill="red"/><path d="M 5,5l10,10M15,5l10,-10&#10;M5,15l-10,10M15,25l10,-10&#10;M-5,5l10,-10" fill="transparent" stroke-width="2" shape-rendering="auto" stroke="#343434" stroke-linecap="square"/></pattern></defs><defs><pattern id="lncnp" patternUnits="userSpaceOnUse" width="20" height="20"><rect width="20" height="20" fill="red"/><path d="M 0,20 l 20,-20 M -5,5 l 10,-10&#10;M 15,25 l 10,-10" stroke-width="0" shape-rendering="auto" stroke="#343434" stroke-linecap="square"/></pattern></defs><defs><pattern id="xcumx" patternUnits="userSpaceOnUse" width="20" height="20"><rect width="20" height="20" fill="yellow"/><path d="M 10, 0 l 0, 20" stroke-width="2" shape-rendering="auto" stroke="#343434" stroke-linecap="square"/></pattern></defs><defs><pattern id="chdvy" patternUnits="userSpaceOnUse" width="20" height="20"><rect width="20" height="20" fill="yellow"/><path d="M 0,0 l 20,20 M -5,15 l 10,10&#10;M 15,-5 l 10,10" stroke-width="2" shape-rendering="auto" stroke="#343434" stroke-linecap="square"/></pattern></defs><defs><pattern id="ktpmx" patternUnits="userSpaceOnUse" width="20" height="20"><rect width="20" height="20" fill="yellow"/><path d="M 0,20 l 20,-20 M -5,5 l 10,-10&#10;M 15,25 l 10,-10" stroke-width="2" shape-rendering="auto" stroke="#343434" stroke-linecap="square"/></pattern></defs><defs><pattern id="ciflv" patternUnits="userSpaceOnUse" width="10" height="10"><rect width="10" height="10" fill="yellow"/><path d="M 5, 0 l 0, 10" stroke-width="2" shape-rendering="auto" stroke="#343434" stroke-linecap="square"/></pattern></defs><defs><pattern id="jdtgv" patternUnits="userSpaceOnUse" width="10" height="10"><rect width="10" height="10" fill="yellow"/><path d="M 0,0 l 10,10 M -2.5,7.5 l 5,5&#10;M 7.5,-2.5 l 5,5" stroke-width="2" shape-rendering="auto" stroke="#343434" stroke-linecap="square"/></pattern></defs><defs><pattern id="bkktb" patternUnits="userSpaceOnUse" width="10" height="10"><rect width="10" height="10" fill="yellow"/><path d="M 0,10 l 10,-10 M -2.5,2.5 l 5,-5&#10;M 7.5,12.5 l 5,-5" stroke-width="2" shape-rendering="auto" stroke="#343434" stroke-linecap="square"/></pattern></defs><defs><pattern id="orizt" patternUnits="userSpaceOnUse" width="20" height="20"><rect width="20" height="20" fill="yellow"/><path d="M 0 10 c 2.5 -5 , 7.5 -5 , 10 0&#10;c 2.5 5 , 7.5 5 , 10 0 M -10 10&#10;c 2.5 5 , 7.5 5 , 10 0 M 20 10&#10;c 2.5 -5 , 7.5 -5 , 10 0" fill="transparent" stroke-width="2" shape-rendering="auto" stroke="#343434" stroke-linecap="square"/></pattern></defs><defs><pattern id="tjlaa" patternUnits="userSpaceOnUse" width="20" height="20"><rect width="20" height="20" fill="yellow"/><circle cx="10" cy="10" r="2" fill="#343434" stroke="#343434" stroke-width="0"/><circle cx="0" cy="0" r="2" fill="#343434" stroke="#343434" stroke-width="0"/><circle cx="0" cy="20" r="2" fill="#343434" stroke="#343434" stroke-width="0"/><circle cx="20" cy="0" r="2" fill="#343434" stroke="#343434" stroke-width="0"/><circle cx="20" cy="20" r="2" fill="#343434" stroke="#343434" stroke-width="0"/></pattern></defs><defs><pattern id="rvkhp" patternUnits="userSpaceOnUse" width="10" height="10"><rect width="10" height="10" fill="yellow"/><circle cx="5" cy="5" r="1" fill="#343434" stroke="#343434" stroke-width="1.1"/><circle cx="0" cy="0" r="1" fill="#343434" stroke="#343434" stroke-width="1.1"/><circle cx="0" cy="10" r="1" fill="#343434" stroke="#343434" stroke-width="1.1"/><circle cx="10" cy="0" r="1" fill="#343434" stroke="#343434" stroke-width="1.1"/><circle cx="10" cy="10" r="1" fill="#343434" stroke="#343434" stroke-width="1.1"/></pattern></defs><defs><pattern id="fumoh" patternUnits="userSpaceOnUse" width="10" height="10"><rect width="10" height="10" fill="yellow"/><circle cx="5" cy="5" r="1" fill="#343434" stroke="#343434" stroke-width="1.1"/><circle cx="0" cy="0" r="1" fill="#343434" stroke="#343434" stroke-width="1.1"/><circle cx="0" cy="10" r="1" fill="#343434" stroke="#343434" stroke-width="1.1"/><circle cx="10" cy="0" r="1" fill="#343434" stroke="#343434" stroke-width="1.1"/><circle cx="10" cy="10" r="1" fill="#343434" stroke="#343434" stroke-width="1.1"/></pattern></defs><defs><pattern id="mashc" patternUnits="userSpaceOnUse" width="10" height="10"><rect width="10" height="10" fill="yellow"/><circle cx="5" cy="5" r="1" fill="#343434" stroke="#343434" stroke-width="1.3"/><circle cx="0" cy="0" r="1" fill="#343434" stroke="#343434" stroke-width="1.3"/><circle cx="0" cy="10" r="1" fill="#343434" stroke="#343434" stroke-width="1.3"/><circle cx="10" cy="0" r="1" fill="#343434" stroke="#343434" stroke-width="1.3"/><circle cx="10" cy="10" r="1" fill="#343434" stroke="#343434" stroke-width="1.3"/></pattern></defs><defs><pattern id="mscyv" patternUnits="userSpaceOnUse" width="20" height="20"><rect width="20" height="20" fill="yellow"/><circle cx="10" cy="10" r="4" fill="grey" stroke="#343434" stroke-width="0"/><circle cx="0" cy="0" r="4" fill="grey" stroke="#343434" stroke-width="0"/><circle cx="0" cy="20" r="4" fill="grey" stroke="#343434" stroke-width="0"/><circle cx="20" cy="0" r="4" fill="grey" stroke="#343434" stroke-width="0"/><circle cx="20" cy="20" r="4" fill="grey" stroke="#343434" stroke-width="0"/></pattern></defs><defs><pattern id="knfqe" patternUnits="userSpaceOnUse" width="20" height="20"><rect width="20" height="20" fill="yellow"/><path d="M 0,20 l 20,-20 M -5,5 l 10,-10&#10;M 15,25 l 10,-10" stroke-width="1" shape-rendering="auto" stroke="#343434" stroke-linecap="square"/><path d="M 0,0 l 20,20 M -5,15 l 10,10&#10;M 15,-5 l 10,10" stroke-width="1" shape-rendering="auto" stroke="#343434" stroke-linecap="square"/></pattern></defs><defs><pattern id="ffisr" patternUnits="userSpaceOnUse" width="20" height="20"><rect width="20" height="20" fill="yellow"/><path d="M 5,15l5,-10l5,10" fill="transparent" stroke-width="2" shape-rendering="auto" stroke="#343434" stroke-linecap="square"/></pattern></defs><defs><pattern id="awrwi" patternUnits="userSpaceOnUse" width="20" height="20"><rect width="20" height="20" fill="yellow"/><path d="M 5,5l10,10M15,5l10,-10&#10;M5,15l-10,10M15,25l10,-10&#10;M-5,5l10,-10" fill="transparent" stroke-width="2" shape-rendering="auto" stroke="#343434" stroke-linecap="square"/></pattern></defs><defs><pattern id="vnipz" patternUnits="userSpaceOnUse" width="20" height="20"><rect width="20" height="20" fill="yellow"/><path d="M 0,20 l 20,-20 M -5,5 l 10,-10&#10;M 15,25 l 10,-10" stroke-width="0" shape-rendering="auto" stroke="#343434" stroke-linecap="square"/></pattern></defs><g id="frame-layer"><path d="M 40 40 L 1444.0989399293287 40 L 1444.0989399293287 1009.469964664311 L 40 1009.469964664311 L 40 40 z" fill="none" stroke="#000000" stroke-width="2.5px" stroke-opacity="1" id="svgContainer" class="notDeletable"/></g><g id="map-layer" width="1484.0989399293287" height="1049.469964664311"><g id="source-layer" class="rotable"/><g id="drawing-layer"><g id="polygons-layer"><path class="link_1" fill="url(#poffk)" d="M 75.72932434082031 271.1279296875 L 295.4378662109375 187.91917419433594 L 266.4551696777344 278.60736083984375 L 278.609130859375 315.06964111328125 L 227.18797302246094 333.76824951171875 L 141.17442321777344 311.3299255371094 L 152.39358520507812 346.8572692871094 L 120.60611724853516 365.55596923828125 L 94.42792510986328 307.5902099609375 Z " e-style="smallhash45" e-color="none" data-link="1"/><path class="link_2 c2 notDeletable" fill="none" d="M 350.59869384765625 164.54592895507812 L 390.80072021484375 233.73074340820312 L 431.9376220703125 220.6417236328125 L 395.475341796875 186.9842529296875 L 497.3827209472656 161.7411346435547 L 460.9204406738281 219.706787109375 L 542.2593383789062 286.0868225097656 L 527.3004760742188 333.76824951171875 L 377.7117004394531 301.0456848144531 L 316.9412536621094 315.06964111328125 L 264.5851745605469 287.9566650390625 L 291.6981506347656 227.1862335205078 L 298.2426452636719 223.44651794433594 Z " e-style="woven" e-color="none" data-link="2" stroke="white" stroke-width="20"/><path class="link_2" fill="url(#wcfsg)" d="M 350.59869384765625 164.54592895507812 L 390.80072021484375 233.73074340820312 L 431.9376220703125 220.6417236328125 L 395.475341796875 186.9842529296875 L 497.3827209472656 161.7411346435547 L 460.9204406738281 219.706787109375 L 542.2593383789062 286.0868225097656 L 527.3004760742188 333.76824951171875 L 377.7117004394531 301.0456848144531 L 316.9412536621094 315.06964111328125 L 264.5851745605469 287.9566650390625 L 291.6981506347656 227.1862335205078 L 298.2426452636719 223.44651794433594 Z " e-style="woven" e-color="none" data-link="2" stroke="black" stroke-width="2"/><path class="link_3 c3 notDeletable" fill="none" d="M776.9267578125,137.43295288085938L812.4541015625,199.13833618164062L729.245361328125,221.57664489746094L836.7622680664062,393.603759765625L835.8273315429688,432.8708190917969L730.1802978515625,445.9598388671875L714.2864990234375,384.25445556640625L729.245361328125,343.1175537109375L651.6461791992188,231.8608856201172L672.214599609375,173.89523315429688L670.3447875976562,176.70001220703125Z" e-style="waves" e-color="none" data-link="3" stroke="white" stroke-width="20"/><path class="link_3" fill="url(#wcfsg)" d="M776.9267578125,137.43295288085938L812.4541015625,199.13833618164062L729.245361328125,221.57664489746094L836.7622680664062,393.603759765625L835.8273315429688,432.8708190917969L730.1802978515625,445.9598388671875L714.2864990234375,384.25445556640625L729.245361328125,343.1175537109375L651.6461791992188,231.8608856201172L672.214599609375,173.89523315429688L670.3447875976562,176.70001220703125Z" e-style="woven" e-color="none" data-link="3" stroke="black" stroke-width="2"/><path class="link_4 c4 notDeletable" fill="none" d="M922.7758178710938,127.14872741699219L890.0532836914062,157.0664825439453L876.9642944335938,183.24452209472656L902.2073974609375,250.55947875976562L953.6285400390625,188.85411071777344L951.7586669921875,188.85411071777344Z" e-style="waves" e-color="none" data-link="4" stroke="white" stroke-width="20"/><path class="link_4" fill="url(#wcfsg)" d="M922.7758178710938,127.14872741699219L890.0532836914062,157.0664825439453L876.9642944335938,183.24452209472656L902.2073974609375,250.55947875976562L953.6285400390625,188.85411071777344L951.7586669921875,188.85411071777344Z" e-style="woven" e-color="none" data-link="4" stroke="black" stroke-width="2"/><path class="link_7 c7 notDeletable" fill="none" d="M441.28692626953125,934.9281616210938L322.55084228515625,659.1238403320312L371.16717529296875,711.4799194335938L391.73565673828125,667.5382080078125L516.081298828125,937.7329711914062L516.081298828125,937.7329711914062L517.0162353515625,935.8630981445312Z" e-style="waves" e-color="none" data-link="7" stroke="white" stroke-width="20"/><path class="link_7" fill="url(#wcfsg)" d="M441.28692626953125,934.9281616210938L322.55084228515625,659.1238403320312L371.16717529296875,711.4799194335938L391.73565673828125,667.5382080078125L516.081298828125,937.7329711914062L516.081298828125,937.7329711914062L517.0162353515625,935.8630981445312Z" e-style="woven" e-color="none" data-link="7" stroke="black" stroke-width="2"/><path class="link_8 c8 notDeletable" fill="none" d="M1356.5833740234375,939.6028442382812L1234.1075439453125,767.5757446289062L1236.912353515625,708.6751708984375L881.638916015625,723.634033203125L738.5946655273438,635.7506103515625L712.4166259765625,653.5142822265625L791.8856811523438,775.9901123046875L885.378662109375,781.5996704101562L917.166259765625,747.0072631835938L1034.032470703125,815.2571411132812L991.9606323242188,934.9281616210938L991.9606323242188,934.9281616210938Z" e-style="woven" e-color="none" data-link="8" stroke="white" stroke-width="20"/><path class="link_8" fill="url(#wcfsg)" d="M1356.5833740234375,939.6028442382812L1234.1075439453125,767.5757446289062L1236.912353515625,708.6751708984375L881.638916015625,723.634033203125L738.5946655273438,635.7506103515625L712.4166259765625,653.5142822265625L791.8856811523438,775.9901123046875L885.378662109375,781.5996704101562L917.166259765625,747.0072631835938L1034.032470703125,815.2571411132812L991.9606323242188,934.9281616210938L991.9606323242188,934.9281616210938Z" e-style="woven" e-color="none" data-link="8" stroke="black" stroke-width="2"/><path xmlns="http://www.w3.org/2000/svg" class="link_75" fill="url(#kwdgy)" d="M 405.7595520019531 315.0696105957031 L 410.4342041015625 373.9702453613281 L 474.9443664550781 395.4736022949219 L 654.450927734375 370.2304992675781 L 721.765869140625 454.37420654296875 L 842.371826171875 447.8297119140625 L 849.8512573242188 408.5626525878906 L 1109.7617797851562 219.70675659179688 L 1348.1689453125 428.1961669921875 L 1221.0184326171875 701.1956787109375 L 885.378662109375 709.6100463867188 L 746.0740966796875 626.4013061523438 L 689.0433349609375 649.7745361328125 L 494.57794189453125 529.1685791015625 L 385.19110107421875 643.2300415039062 L 315.0713806152344 654.44921875 L 356.20831298828125 816.1920776367188 L 237.47218322753906 816.1920776367188 L 133.69497680664062 609.5725708007812 L 428.1978759765625 623.5965576171875 Z " e-style="smalldotsthicker" e-color="none" data-link="75"/><path class="" fill="url(#kwdgy)" d="M131.8250961303711,637.6204833984375Z"/><path xmlns="http://www.w3.org/2000/svg" class="link_78" fill="url(#kwdgy)" d="M 243.081787109375 343.1175231933594 L 293.5679931640625 330.96343994140625 L 375.8418273925781 311.3299255371094 L 415.10888671875 319.7442932128906 L 411.36912536621094 456.24407958984375 L 282.34877014160156 461.8536376953125 L 229.99270629882812 399.2133483886719 L 227.1879119873047 400.14825439453125 Z " e-style="smalldotsthicker" e-color="none" data-link="78"/><path class="link_86 c86 notDeletable" fill="none" d="M 41.13691711425781 510.4700012207031 L 240.27699279785156 599.288330078125 L 370.23238372802734 610.507568359375 L 429.1329879760742 465.5934143066406 L 214.0990982055664 439.4153747558594 L 225.3182601928711 333.768310546875 L 142.1094970703125 310.3950500488281 L 135.5649871826172 362.7511291503906 L 182.31148529052734 377.7099914550781 L 136.49991607666016 393.60382080078125 L 157.06837463378906 428.19622802734375 L 122.47596740722656 408.56268310546875 L 115.93145751953125 446.8948059082031 L 83.2087631225586 348.72711181640625 L 45.81156539916992 211.29241943359375 Z " e-style="woven" e-color="none" data-link="86" stroke="white" stroke-width="20"/><path class="link_86" fill="url(#wcfsg)" d="M 41.13691711425781 510.4700012207031 L 240.27699279785156 599.288330078125 L 370.23238372802734 610.507568359375 L 429.1329879760742 465.5934143066406 L 214.0990982055664 439.4153747558594 L 225.3182601928711 333.768310546875 L 142.1094970703125 310.3950500488281 L 135.5649871826172 362.7511291503906 L 182.31148529052734 377.7099914550781 L 136.49991607666016 393.60382080078125 L 157.06837463378906 428.19622802734375 L 122.47596740722656 408.56268310546875 L 115.93145751953125 446.8948059082031 L 83.2087631225586 348.72711181640625 L 45.81156539916992 211.29241943359375 Z " e-style="woven" e-color="none" data-link="86" stroke="black" stroke-width="2"/></g><g id="lines-layer"/><g id="points-layer"><path class="link_10" d="M 713.3515625 629.2061157226562 m -10, 0 a 10,10 0 1,0 20,0 a 10,10 0 1,0 -20,0" data-link="10" stroke="black" stroke-width="2" fill="white"/><path class="link_97" d="M 83.49299621582031 581.8088989257812 v20 h20 v-20 Z" data-link="97" stroke="black" stroke-width="3" fill="white"/><path class="link_98" d="M 556.5675048828125 710.8292236328125 v20 h20 v-20 Z" data-link="98" stroke="black" stroke-width="3" fill="white"/><path class="link_99" d="M 1319.4703369140625 592.0931396484375 v20 h20 v-20 Z" data-link="99" stroke="black" stroke-width="3" fill="white"/><path class="link_100 c100 notDeletable" d="M 102.19158935546875 338.72711181640625 v20 h20 v-20 Z" data-link="100" stroke="white" stroke-width="20" fill="none"/><path class="link_100" d="M 102.19158935546875 338.72711181640625 v20 h20 v-20 Z" data-link="100" stroke="black" stroke-width="3" fill="white"/><path class="link_101 c101 notDeletable" d="M 195.68458557128906 270.47723388671875 v20 h20 v-20 Z" data-link="101" stroke="white" stroke-width="20" fill="none"/><path class="link_101" d="M 195.68458557128906 270.47723388671875 v20 h20 v-20 Z" data-link="101" stroke="black" stroke-width="3" fill="white"/><foreignobject xmlns="http://www.w3.org/1999/xhtml" id="deletedElement"></foreignobject><path class="link_108" d="M 239.6262969970703 694.9354248046875 v20 h20 v-20 Z" data-link="108" stroke="black" stroke-width="3" fill="white"/></g><g id="text-layer"/></g></g><g id="margin-layer" width="1484.0989399293287" height="1049.469964664311"><path d="M 0 0 L 0 1049.469964664311 L 1484.0989399293287 1049.469964664311 L 1484.0989399293287 0 L 0 0 z M 40 40 L 1444.0989399293287 40 L 1444.0989399293287 1009.469964664311 L 40 1009.469964664311 L 40 40 z" style="opacity:1;fill:#ffffff;fill-opacity:1" id="svgWhiteBorder" class="notDeletable"/></g></svg>