<?xml version="1.0" encoding="UTF-8" standalone="no"?>
<!-- Created with Inkscape (http://www.inkscape.org/) -->

<svg
   xmlns:dc="http://purl.org/dc/elements/1.1/"
   xmlns:cc="http://creativecommons.org/ns#"
   xmlns:rdf="http://www.w3.org/1999/02/22-rdf-syntax-ns#"
   xmlns:svg="http://www.w3.org/2000/svg"
   xmlns="http://www.w3.org/2000/svg"
   xmlns:inkscape="http://www.inkscape.org/namespaces/inkscape"
   version="1.1"
   width="50"
   height="263"
   id="svg2"
   xml:space="preserve"><metadata
     id="metadata8"><rdf:RDF><cc:Work
         rdf:about=""><dc:format>image/svg+xml</dc:format><dc:type
           rdf:resource="http://purl.org/dc/dcmitype/StillImage" /></cc:Work></rdf:RDF></metadata><defs
     id="defs6"><clipPath
       id="clipPath12"><path
         d="M 0,0 39,0 39,209 0,209 0,20 z"
         inkscape:connector-curvature="0"
         id="path14" /></clipPath></defs><g
     transform="matrix(0,1.25,1.25,0,0,237), rotate(90 10 10)"
     clip-path="url(#clipPath12)"
     id="g10"><g
       transform="scale(0.1,0.1)"
       id="g16"><path
         d="m 16.4727,2.31641 c 0,360.57459 0,713.89859 0,1074.49359 -4.0977,0 -8.19536,0 -12.2852,0 0,127.56 0,255.14 0,382.7 6.7773,28.95 13.5469,57.89 20.3203,86.83 6.75,-28.85 13.5078,-57.71 20.2656,-86.57 0,28.33 0,56.68 0,85 20.7891,34.24 41.5899,68.48 62.3906,102.71 0,32.04 0,64.08 0,96.12 31.051,64.13 57.922,133.94 76.859,203.84 -7.472,4.02 -12.566,11.91 -12.566,21 0,5.82 2.094,11.15 5.559,15.29 l 18.257,105.64 18.258,-105.66 c 3.465,-4.12 5.559,-9.45 5.559,-15.27 0,-9.09 -5.094,-16.98 -12.57,-21 18.937,-69.9 45.808,-139.71 76.863,-203.84 0,-32.04 0,-64.08 0,-96.12 20.801,-34.23 41.597,-68.47 62.387,-102.71 0,-28.32 0,-56.67 0,-85 6.757,28.86 13.515,57.72 20.269,86.57 6.77,-28.94 13.543,-57.88 20.32,-86.83 0,-127.56 0,-255.14 0,-382.7 -4.089,0 -8.191,0 -12.285,0 0,-360.595 0,-713.919 0,-1074.49359 -119.199,0 -238.406,0 -357.6013,0"
         inkscape:connector-curvature="0"
         id="path18"
         style="fill:#231f20;fill-opacity:1;fill-rule:evenodd;stroke:none" /><path
         d="m 129.676,1743.55 c 27.582,55.97 50.398,112.33 65.597,173.5 15.2,-61.17 38.004,-117.53 65.582,-173.5 -43.722,0 -87.453,0 -131.179,0 z m 65.597,286.86 5.446,-38.57 c -1.75,0.41 -3.574,0.62 -5.446,0.62 -1.875,0 -3.699,-0.21 -5.445,-0.62 l 5.445,38.57 z m 22.528,-236.09 c 0,14.38 0,-3.2 0,10.85 0,11.06 -13.91,11.07 -13.91,0 0,-14.05 0,3.53 0,-10.85 l 13.91,0 z m -15.567,35.91 c 0,14.36 0,-3.2 0,10.84 0,11.07 -13.91,11.08 -13.91,0 0,-14.04 0,3.52 0,-10.84 l 13.91,0 z m -31.117,-71.8 c 0,14.36 0,-3.21 0,10.84 0,11.06 -13.918,11.07 -13.918,0 0,-14.05 0,3.52 0,-10.84 l 13.918,0 z m 31.117,0 c 0,14.36 0,-3.21 0,10.84 0,11.06 -13.91,11.07 -13.91,0 0,-14.05 0,3.52 0,-10.84 l 13.91,0 z m 31.129,0 c 0,14.36 0,-3.21 0,10.84 0,11.06 -13.918,11.07 -13.918,0 0,-14.05 0,3.52 0,-10.84 l 13.918,0 z m -46.691,35.89 c 0,14.38 0,-3.2 0,10.85 0,11.06 -13.914,11.07 -13.914,0 0,-14.05 0,3.53 0,-10.85 l 13.914,0 z m 17.277,-199.04 c 0,16.08 0,-3.58 0,12.15 0,12.38 -17.34,12.38 -17.34,0 0,-15.73 0,3.93 0,-12.15 l 17.34,0 z m -50.097,0 c 0,16.08 0,-3.58 0,12.15 0,12.38 -17.348,12.38 -17.348,0 0,-15.73 0,3.93 0,-12.15 l 17.348,0 z m 125.253,-40.21 c 0,16.08 0,-3.59 0,12.14 0,12.38 -17.339,12.39 -17.339,0 0,-15.73 0,3.94 0,-12.14 l 17.339,0 z m -50.113,0 c 0,16.08 0,-3.59 0,12.14 0,12.38 -17.336,12.39 -17.336,0 0,-15.73 0,3.94 0,-12.14 l 17.336,0 z m -50.094,0 c 0,16.08 0,-3.59 0,12.14 0,12.38 -17.339,12.39 -17.339,0 0,-15.73 0,3.94 0,-12.14 l 17.339,0 z m -50.105,0 c 0,16.08 0,-3.59 0,12.14 0,12.38 -17.328,12.38 -17.328,0 0,-15.73 0,3.94 0,-12.14 l 17.328,0 z m 125.254,40.21 c 0,16.08 0,-3.58 0,12.15 0,12.38 -17.336,12.38 -17.336,0 0,-15.73 0,3.93 0,-12.15 l 17.336,0 z m 112.004,-105.65 c -1.813,-10.04 -3.625,-20.07 -5.438,-30.11 3.625,0 7.242,0 10.867,0 -1.804,10.04 -3.625,20.07 -5.429,30.11 z m -170.778,490.41 c 6.407,0 11.594,-5.19 11.594,-11.6 0,-6.4 -5.187,-11.59 -11.594,-11.59 -6.41,0 -11.593,5.19 -11.593,11.59 0,6.41 5.183,11.6 11.593,11.6 z m 80.672,-351.69 c 16.903,-27.85 33.809,-55.71 50.711,-83.57 -87.586,0 -175.172,0 -262.7615,0 16.9102,27.86 33.8164,55.72 50.7185,83.57 53.778,0 107.555,0 161.332,0 z M 24.5078,1489.63 c 1.8125,-10.04 3.6211,-20.08 5.4336,-30.11 -3.6211,0 -7.2422,0 -10.8633,0 1.8086,10.03 3.6211,20.07 5.4297,30.11 z m 11.0899,-412.82 c 6.0625,0 12.1445,0 18.2031,0 0,-61.01 0,-122.009 0,-183.013 -6.0586,0 -12.1406,0 -18.2031,0 0,61.004 0,122.003 0,183.013 z M 95.2617,55.1953 c 0,16.0469 0,133.1637 0,148.8557 0,12.367 -16.6328,12.367 -16.6328,0 0,-15.692 0,-132.8088 0,-148.8557 5.543,0 11.0899,0 16.6328,0 z m 0,852.6287 c 0,16.055 0,133.166 0,148.866 0,12.35 -16.6328,12.36 -16.6328,0 0,-15.7 0,-132.811 0,-148.866 5.543,0 11.0899,0 16.6328,0 z m 216.6683,0 c 0,16.055 0,133.166 0,148.866 0,12.35 -16.633,12.36 -16.633,0 0,-15.7 0,-132.811 0,-148.866 5.539,0 11.082,0 16.633,0 z m -36.11,0 c 0,16.055 0,133.166 0,148.866 0,12.35 -16.636,12.36 -16.636,0 0,-15.7 0,-132.811 0,-148.866 5.546,0 11.086,0 16.636,0 z m -36.113,0 c 0,16.055 0,133.166 0,148.866 0,12.35 -16.637,12.36 -16.637,0 0,-15.7 0,-132.811 0,-148.866 5.547,0 11.086,0 16.637,0 z m -36.113,0 c 0,16.055 0,133.166 0,148.866 0,12.35 -16.629,12.36 -16.629,0 0,-15.7 0,-132.811 0,-148.866 5.543,0 11.078,0 16.629,0 z m -36.114,0 c 0,16.055 0,133.166 0,148.866 0,12.35 -16.632,12.36 -16.632,0 0,-15.7 0,-132.811 0,-148.866 5.547,0 11.09,0 16.632,0 z m -36.113,0 c 0,16.055 0,133.166 0,148.866 0,12.35 -16.625,12.36 -16.625,0 0,-15.7 0,-132.811 0,-148.866 5.539,0 11.09,0 16.625,0 z M 95.2617,694.672 c 0,16.047 0,133.16 0,148.867 0,12.348 -16.6328,12.356 -16.6328,0 0,-15.707 0,-132.82 0,-148.867 5.543,0 11.0899,0 16.6328,0 z m 216.6683,0 c 0,16.047 0,133.16 0,148.867 0,12.348 -16.633,12.356 -16.633,0 0,-15.707 0,-132.82 0,-148.867 5.539,0 11.082,0 16.633,0 z m -36.11,0 c 0,16.047 0,133.16 0,148.867 0,12.348 -16.636,12.356 -16.636,0 0,-15.707 0,-132.82 0,-148.867 5.546,0 11.086,0 16.636,0 z m -36.113,0 c 0,16.047 0,133.16 0,148.867 0,12.348 -16.637,12.356 -16.637,0 0,-15.707 0,-132.82 0,-148.867 5.547,0 11.086,0 16.637,0 z m -36.113,0 c 0,16.047 0,133.16 0,148.867 0,12.348 -16.629,12.356 -16.629,0 0,-15.707 0,-132.82 0,-148.867 5.543,0 11.078,0 16.629,0 z m -36.114,0 c 0,16.047 0,133.16 0,148.867 0,12.348 -16.632,12.356 -16.632,0 0,-15.707 0,-132.82 0,-148.867 5.547,0 11.09,0 16.632,0 z m -36.113,0 c 0,16.047 0,133.16 0,148.867 0,12.348 -16.625,12.356 -16.625,0 0,-15.707 0,-132.82 0,-148.867 5.539,0 11.09,0 16.625,0 z M 95.2617,481.512 c 0,16.047 0,133.172 0,148.867 0,12.351 -16.6328,12.351 -16.6328,0 0,-15.695 0,-132.82 0,-148.867 5.543,0 11.0899,0 16.6328,0 z m 216.6683,0 c 0,16.047 0,133.172 0,148.867 0,12.351 -16.633,12.351 -16.633,0 0,-15.695 0,-132.82 0,-148.867 5.539,0 11.082,0 16.633,0 z m -36.11,0 c 0,16.047 0,133.172 0,148.867 0,12.351 -16.636,12.351 -16.636,0 0,-15.695 0,-132.82 0,-148.867 5.546,0 11.086,0 16.636,0 z m -36.113,0 c 0,16.047 0,133.172 0,148.867 0,12.351 -16.637,12.351 -16.637,0 0,-15.695 0,-132.82 0,-148.867 5.547,0 11.086,0 16.637,0 z m -36.113,0 c 0,16.047 0,133.172 0,148.867 0,12.351 -16.629,12.351 -16.629,0 0,-15.695 0,-132.82 0,-148.867 5.543,0 11.078,0 16.629,0 z m -36.114,0 c 0,16.047 0,133.172 0,148.867 0,12.351 -16.632,12.351 -16.632,0 0,-15.695 0,-132.82 0,-148.867 5.547,0 11.09,0 16.632,0 z m -36.113,0 c 0,16.047 0,133.172 0,148.867 0,12.351 -16.625,12.351 -16.625,0 0,-15.695 0,-132.82 0,-148.867 5.539,0 11.09,0 16.625,0 z M 95.2617,268.352 c 0,16.046 0,133.164 0,148.867 0,12.351 -16.6328,12.359 -16.6328,0 0,-15.703 0,-132.821 0,-148.867 5.543,0 11.0899,0 16.6328,0 z m 216.6683,0 c 0,16.046 0,133.164 0,148.867 0,12.351 -16.633,12.359 -16.633,0 0,-15.703 0,-132.821 0,-148.867 5.539,0 11.082,0 16.633,0 z m -36.11,0 c 0,16.046 0,133.164 0,148.867 0,12.351 -16.636,12.359 -16.636,0 0,-15.703 0,-132.821 0,-148.867 5.546,0 11.086,0 16.636,0 z m -36.113,0 c 0,16.046 0,133.164 0,148.867 0,12.351 -16.637,12.359 -16.637,0 0,-15.703 0,-132.821 0,-148.867 5.547,0 11.086,0 16.637,0 z m -36.113,0 c 0,16.046 0,133.164 0,148.867 0,12.351 -16.629,12.359 -16.629,0 0,-15.703 0,-132.821 0,-148.867 5.543,0 11.078,0 16.629,0 z m -36.114,0 c 0,16.046 0,133.164 0,148.867 0,12.351 -16.632,12.359 -16.632,0 0,-15.703 0,-132.821 0,-148.867 5.547,0 11.09,0 16.632,0 z m -36.113,0 c 0,16.046 0,133.164 0,148.867 0,12.351 -16.625,12.359 -16.625,0 0,-15.703 0,-132.821 0,-148.867 5.539,0 11.09,0 16.625,0 z M 311.93,55.1953 c 0,16.0469 0,133.1637 0,148.8557 0,12.367 -16.633,12.367 -16.633,0 0,-15.692 0,-132.8088 0,-148.8557 5.539,0 11.082,0 16.633,0 z m -36.11,0 c 0,16.0469 0,133.1637 0,148.8557 0,12.367 -16.636,12.367 -16.636,0 0,-15.692 0,-132.8088 0,-148.8557 5.546,0 11.086,0 16.636,0 z m -36.113,0 c 0,16.0469 0,133.1637 0,148.8557 0,12.367 -16.637,12.367 -16.637,0 0,-15.692 0,-132.8088 0,-148.8557 5.547,0 11.086,0 16.637,0 z m -36.113,0 c 0,16.0469 0,133.1637 0,148.8557 0,12.367 -16.629,12.367 -16.629,0 0,-15.692 0,-132.8088 0,-148.8557 5.543,0 11.078,0 16.629,0 z m -36.114,0 c 0,16.0469 0,133.1637 0,148.8557 0,12.367 -16.632,12.367 -16.632,0 0,-15.692 0,-132.8088 0,-148.8557 5.547,0 11.09,0 16.632,0 z m -36.113,0 c 0,16.0469 0,133.1637 0,148.8557 0,12.367 -16.625,12.367 -16.625,0 0,-15.692 0,-132.8088 0,-148.8557 5.539,0 11.09,0 16.625,0 z M 61.7539,1076.81 c 89.0081,0 178.0351,0 267.0431,0 0,-61.01 0,-122.009 0,-183.013 -89.008,0 -178.035,0 -267.0431,0 0,61.004 0,122.003 0,183.013 z m 274.9921,0 c 6.074,0 12.149,0 18.219,0 0,-61.01 0,-122.009 0,-183.013 -6.07,0 -12.145,0 -18.219,0 0,61.004 0,122.003 0,183.013 z m 18.219,-190.033 c 0,-4.304 0,-8.613 0,-12.918 -6.07,0 -12.145,0 -18.219,0 0,4.305 0,8.614 0,12.918 6.074,0 12.149,0 18.219,0 z m -26.168,-12.918 c -89.008,0 -178.035,0 -267.0431,0 0,4.305 0,8.614 0,12.918 89.0081,0 178.0351,0 267.0431,0 0,-4.304 0,-8.613 0,-12.918 z m -274.9962,0 c -6.0586,0 -12.1406,0 -18.2031,0 0,4.305 0,8.614 0,12.918 6.0625,0 12.1445,0 18.2031,0 0,-4.304 0,-8.613 0,-12.918 z m 301.1642,-7.031 c 0,-62.058 0,-124.121 0,-186.18 -6.07,0 -12.145,0 -18.219,0 0,62.059 0,124.122 0,186.18 6.074,0 12.149,0 18.219,0 z m -26.168,-186.18 c -89.008,0 -178.035,0 -267.0431,0 0,62.059 0,124.122 0,186.18 89.0081,0 178.0351,0 267.0431,0 0,-62.058 0,-124.121 0,-186.18 z m -274.9962,0 c -6.0586,0 -12.1406,0 -18.2031,0 0,62.059 0,124.122 0,186.18 6.0625,0 12.1445,0 18.2031,0 0,-62.058 0,-124.121 0,-186.18 z m 301.1642,-7.023 c 0,-4.313 0,-8.621 0,-12.93 -6.07,0 -12.145,0 -18.219,0 0,4.309 0,8.617 0,12.93 6.074,0 12.149,0 18.219,0 z m -26.168,-12.93 c -89.008,0 -178.035,0 -267.0431,0 0,4.309 0,8.617 0,12.93 89.0081,0 178.0351,0 267.0431,0 0,-4.313 0,-8.621 0,-12.93 z m -274.9962,0 c -6.0586,0 -12.1406,0 -18.2031,0 0,4.309 0,8.617 0,12.93 6.0625,0 12.1445,0 18.2031,0 0,-4.313 0,-8.621 0,-12.93 z m 301.1642,-7.027 c 0,-62.059 0,-124.121 0,-186.188 -6.07,0 -12.145,0 -18.219,0 0,62.067 0,124.129 0,186.188 6.074,0 12.149,0 18.219,0 z M 328.797,467.48 c -89.008,0 -178.035,0 -267.0431,0 0,62.067 0,124.129 0,186.188 89.0081,0 178.0351,0 267.0431,0 0,-62.059 0,-124.121 0,-186.188 z m -274.9962,0 c -6.0586,0 -12.1406,0 -18.2031,0 0,62.067 0,124.129 0,186.188 6.0625,0 12.1445,0 18.2031,0 0,-62.059 0,-124.121 0,-186.188 z m 301.1642,-7.027 c 0,-4.305 0,-8.605 0,-12.914 -6.07,0 -12.145,0 -18.219,0 0,4.309 0,8.609 0,12.914 6.074,0 12.149,0 18.219,0 z m -26.168,-12.914 c -89.008,0 -178.035,0 -267.0431,0 0,4.309 0,8.609 0,12.914 89.0081,0 178.0351,0 267.0431,0 0,-4.305 0,-8.605 0,-12.914 z m -274.9962,0 c -6.0586,0 -12.1406,0 -18.2031,0 0,4.309 0,8.609 0,12.914 6.0625,0 12.1445,0 18.2031,0 0,-4.305 0,-8.605 0,-12.914 z m 301.1642,-7.027 c 0,-62.063 0,-124.125 0,-186.188 -6.07,0 -12.145,0 -18.219,0 0,62.063 0,124.125 0,186.188 6.074,0 12.149,0 18.219,0 z M 328.797,254.324 c -89.008,0 -178.035,0 -267.0431,0 0,62.063 0,124.125 0,186.188 89.0081,0 178.0351,0 267.0431,0 0,-62.063 0,-124.125 0,-186.188 z m -274.9962,0 c -6.0586,0 -12.1406,0 -18.2031,0 0,62.063 0,124.125 0,186.188 6.0625,0 12.1445,0 18.2031,0 0,-62.063 0,-124.125 0,-186.188 z m 301.1642,-7.027 c 0,-4.305 0,-8.613 0,-12.93 -6.07,0 -12.145,0 -18.219,0 0,4.317 0,8.625 0,12.93 6.074,0 12.149,0 18.219,0 z m -26.168,-12.93 c -89.008,0 -178.035,0 -267.0431,0 0,4.317 0,8.625 0,12.93 89.0081,0 178.0351,0 267.0431,0 0,-4.305 0,-8.613 0,-12.93 z m -274.9962,0 c -6.0586,0 -12.1406,0 -18.2031,0 0,4.317 0,8.625 0,12.93 6.0625,0 12.1445,0 18.2031,0 0,-4.305 0,-8.613 0,-12.93 z m 301.1642,-7.015 c 0,-62.059 0,-124.122 0,-186.184 -6.07,0 -12.145,0 -18.219,0 0,62.062 0,124.125 0,186.184 6.074,0 12.149,0 18.219,0 z M 328.797,41.168 c -89.008,0 -178.035,0 -267.0431,0 0,62.062 0,124.125 0,186.184 89.0081,0 178.0351,0 267.0431,0 0,-62.059 0,-124.122 0,-186.184 z m -274.9962,0 c -6.0586,0 -12.1406,0 -18.2031,0 0,62.062 0,124.125 0,186.184 6.0625,0 12.1445,0 18.2031,0 0,-62.059 0,-124.122 0,-186.184 z M 354.965,34.1484 c 0,-4.3125 0,-8.625 0,-12.9336 -6.07,0 -12.145,0 -18.219,0 0,4.3086 0,8.6211 0,12.9336 6.074,0 12.149,0 18.219,0 z M 328.797,21.2148 c -89.008,0 -178.035,0 -267.0431,0 0,4.3086 0,8.6211 0,12.9336 89.0081,0 178.0351,0 267.0431,0 0,-4.3125 0,-8.625 0,-12.9336 z m -274.9962,0 c -6.0586,0 -12.1406,0 -18.2031,0 0,4.3086 0,8.6211 0,12.9336 6.0625,0 12.1445,0 18.2031,0 0,-4.3125 0,-8.625 0,-12.9336 z M 367.242,1430.88 c 0,-6.64 0,-13.29 0,-19.93 -10.164,0 -20.332,0 -30.496,0 0,6.64 0,13.29 0,19.93 10.164,0 20.332,0 30.496,0 z m -171.969,-84.97 c 1.684,0 3.332,-0.08 4.973,-0.23 1.867,9.61 3.75,19.23 5.625,28.85 -3.465,0.43 -7.004,0.67 -10.598,0.67 -45.781,0 -82.89,-37.11 -82.89,-82.89 0,-45.79 37.109,-82.91 82.89,-82.91 39.172,0 71.977,27.17 80.653,63.69 -9.727,1.41 -19.446,2.83 -29.16,4.25 -6.481,-22.32 -27.075,-38.64 -51.493,-38.64 -29.605,0 -53.605,23.99 -53.605,53.61 0,29.6 24,53.6 53.605,53.6 z m 9.442,-0.82 c 25.105,-4.47 44.168,-26.39 44.168,-52.78 0,-3.53 -0.344,-6.99 -0.988,-10.33 9.46,-2.41 18.933,-4.83 28.402,-7.25 1.23,5.66 1.879,11.54 1.879,17.58 0,41.77 -30.899,76.31 -71.086,82.05 -0.785,-9.76 -1.578,-19.52 -2.375,-29.27 z m -0.414,-5.11 c -1.239,-15.31 -2.477,-30.62 -3.711,-45.93 14.113,-3.59 28.23,-7.2 42.363,-10.81 0.547,2.94 0.844,5.97 0.844,9.07 0,23.7 -17.012,43.44 -39.496,47.67 z m -4.516,-55.79 c -0.453,-5.57 -0.898,-11.13 -1.347,-16.7 -2.192,0.3 -4.368,0.6 -6.551,0.9 -2.184,0.3 -4.364,0.6 -6.551,0.91 1.082,5.51 2.152,11.02 3.226,16.53 -7.039,1.02 -14.07,2.06 -21.113,3.07 0.387,2.18 0.754,4.35 1.137,6.52 0.375,2.17 0.746,4.34 1.117,6.52 6.988,-1.78 13.977,-3.57 20.961,-5.35 2.871,14.69 5.734,29.38 8.602,44.07 -1.313,0.11 -2.649,0.17 -3.993,0.17 -26.793,0 -48.515,-21.73 -48.515,-48.52 0,-26.81 21.722,-48.52 48.515,-48.52 21.848,0 40.321,14.44 46.395,34.29 -13.957,2.04 -27.918,4.07 -41.883,6.11 z m -4.512,105.74 c 53.918,0 97.629,-43.72 97.629,-97.62 0,-7.29 -0.797,-14.38 -2.316,-21.22 -2.859,0.73 -5.723,1.46 -8.59,2.2 1.344,6.12 2.059,12.48 2.059,19.02 0,44.85 -33.27,81.94 -76.493,87.92 0.141,1.69 0.278,3.39 0.415,5.09 -0.325,-1.67 -0.653,-3.34 -0.977,-5.02 -3.832,0.51 -7.742,0.79 -11.727,0.79 -49.027,0 -88.777,-39.76 -88.777,-88.78 0,-49.04 39.75,-88.78 88.777,-88.78 42.133,0 77.399,29.34 86.497,68.7 2.929,-0.42 5.863,-0.85 8.789,-1.28 -9.739,-43.64 -48.704,-76.27 -95.286,-76.27 -53.914,0 -97.6246,43.71 -97.6246,97.63 0,53.9 43.7106,97.62 97.6246,97.62 z m 171.969,12.82 c 0,-73.64 0,-147.26 0,-220.89 -10.164,0 -20.332,0 -30.496,0 0,73.63 0,147.25 0,220.89 10.164,0 20.332,0 30.496,0 z m 0,-229.09 c 0,-20.63 0,-41.25 0,-61.88 -10.164,0 -20.332,0 -30.496,0 0,20.63 0,41.25 0,61.88 10.164,0 20.332,0 30.496,0 z m 0,-70.08 c 0,-2.55 0,-5.11 0,-7.65 -10.164,0 -20.332,0 -30.496,0 0,2.54 0,5.1 0,7.65 10.164,0 20.332,0 30.496,0 z M 89.0273,1398.55 c 25.2457,0 50.4957,0 75.7497,0 -36.519,-10.46 -65.3004,-39.25 -75.7497,-75.77 0,25.26 0,50.52 0,75.77 z m 136.7617,0 c 25.254,0 50.492,0 75.738,0 0,-25.24 0,-50.5 0,-75.75 -10.457,36.52 -39.222,65.29 -75.738,75.75 z m 75.738,-136.75 c 0,-25.24 0,-50.5 0,-75.75 -25.254,0 -50.519,0 -75.769,0 36.527,10.45 65.312,39.24 75.769,75.75 z m -136.718,-75.75 c -25.262,0 -50.524,0 -75.7817,0 0,25.27 0,50.52 0,75.79 10.4571,-36.55 39.2537,-65.34 75.7817,-75.79 z m -74.7231,-66.58 c 0,16.88 0,18.87 0,35.38 0,12.99 -17.4961,12.99 -17.4961,0 0,-16.51 0,-18.5 0,-35.38 5.8321,0 11.668,0 17.4961,0 z m 227.8711,0 c 0,16.88 0,18.87 0,35.38 0,12.99 -17.492,12.99 -17.492,0 0,-16.51 0,-18.5 0,-35.38 5.832,0 11.664,0 17.492,0 z m -37.969,0 c 0,16.88 0,18.87 0,35.38 0,12.99 -17.492,12.99 -17.492,0 0,-16.51 0,-18.5 0,-35.38 5.82,0 11.66,0 17.492,0 z m -37.98,0 c 0,16.88 0,18.87 0,35.38 0,12.99 -17.492,12.99 -17.492,0 0,-16.51 0,-18.5 0,-35.38 5.824,0 11.656,0 17.492,0 z m -37.985,0 c 0,16.88 0,18.87 0,35.38 0,12.99 -17.488,12.99 -17.488,0 0,-16.51 0,-18.5 0,-35.38 5.824,0 11.656,0 17.488,0 z m -37.98,0 c 0,16.88 0,18.87 0,35.38 0,12.99 -17.492,12.99 -17.492,0 0,-16.51 0,-18.5 0,-35.38 5.832,0 11.656,0 17.492,0 z m -37.973,0 c 0,16.88 0,18.87 0,35.38 0,12.99 -17.5,12.99 -17.5,0 0,-16.51 0,-18.5 0,-35.38 5.832,0 11.66,0 17.5,0 z m 200.727,-23.54 c -89.008,0 -178.035,0 -267.0431,0 0,2.54 0,5.1 0,7.65 89.0081,0 178.0351,0 267.0431,0 0,-2.55 0,-5.11 0,-7.65 z m -267.0431,15.85 c 0,20.63 0,41.25 0,61.88 89.0081,0 178.0351,0 267.0431,0 0,-20.63 0,-41.25 0,-61.88 -89.008,0 -178.035,0 -267.0431,0 z m 0,70.08 c 0,73.63 0,147.25 0,220.89 4.9609,0 9.918,0 14.8867,0 0,-73.64 0,-147.26 0,-220.89 -4.9687,0 -9.9258,0 -14.8867,0 z m 0,229.09 c 0,6.64 0,13.29 0,19.93 89.0081,0 178.0351,0 267.0431,0 0,-6.64 0,-13.29 0,-19.93 -89.008,0 -178.035,0 -267.0431,0 z m 267.0431,-8.2 c 0,-73.64 0,-147.26 0,-220.89 -4.961,0 -9.922,0 -14.879,0 0,73.63 0,147.25 0,220.89 4.957,0 9.918,0 14.879,0 z M 53.8008,1095.93 c -10.1602,0 -20.3242,0 -30.4844,0 0,2.54 0,5.1 0,7.65 10.1602,0 20.3242,0 30.4844,0 0,-2.55 0,-5.11 0,-7.65 z m -30.4844,15.85 c 0,20.63 0,41.25 0,61.88 10.1602,0 20.3242,0 30.4844,0 0,-20.63 0,-41.25 0,-61.88 -10.1602,0 -20.3242,0 -30.4844,0 z m 0,70.08 c 0,73.63 0,147.25 0,220.89 10.1602,0 20.3242,0 30.4844,0 0,-73.64 0,-147.26 0,-220.89 -10.1602,0 -20.3242,0 -30.4844,0 z m 0,229.09 c 0,6.64 0,13.29 0,19.93 10.1602,0 20.3242,0 30.4844,0 0,-6.64 0,-13.29 0,-19.93 -10.1602,0 -20.3242,0 -30.4844,0 z M 63.8945,1450 c 87.5895,0 175.1755,0 262.7615,0 0,25.22 0,50.44 0,75.66 -87.586,0 -175.172,0 -262.7615,0 0,-25.22 0,-50.44 0,-75.66 z m 26.1993,18.16 c 0,16.89 0,18.86 0,35.38 0,12.99 -17.504,12.99 -17.504,0 0,-16.52 0,-18.49 0,-35.38 5.8321,0 11.668,0 17.504,0 z m 227.8632,0 c 0,16.89 0,18.86 0,35.38 0,12.99 -17.492,12.99 -17.492,0 0,-16.52 0,-18.49 0,-35.38 5.828,0 11.656,0 17.492,0 z m -37.98,0 c 0,16.89 0,18.86 0,35.38 0,12.99 -17.481,12.99 -17.481,0 0,-16.52 0,-18.49 0,-35.38 5.82,0 11.652,0 17.481,0 z m -37.973,0 c 0,16.89 0,18.86 0,35.38 0,12.99 -17.492,12.99 -17.492,0 0,-16.52 0,-18.49 0,-35.38 5.828,0 11.66,0 17.492,0 z m -37.981,0 c 0,16.89 0,18.86 0,35.38 0,12.99 -17.488,12.99 -17.488,0 0,-16.52 0,-18.49 0,-35.38 5.824,0 11.656,0 17.488,0 z m -37.976,0 c 0,16.89 0,18.86 0,35.38 0,12.99 -17.492,12.99 -17.492,0 0,-16.52 0,-18.49 0,-35.38 5.828,0 11.652,0 17.492,0 z m -37.977,0 c 0,16.89 0,18.86 0,35.38 0,12.99 -17.5,12.99 -17.5,0 0,-16.52 0,-18.49 0,-35.38 5.832,0 11.672,0 17.5,0 z m -1.785,256.31 c 45.988,0 91.988,0 137.973,0 0,-25.68 0,-51.37 0,-77.06 -45.985,0 -91.985,0 -137.973,0 0,25.69 0,51.38 0,77.06 z m 31.102,-68.94 c 0,16.94 0,26.03 0,42.6 0,13.03 -15.891,13.03 -15.891,0 0,-16.57 0,-25.66 0,-42.6 5.297,0 10.59,0 15.891,0 z m 91.672,0 c 0,16.94 0,26.03 0,42.6 0,13.03 -15.899,13.03 -15.899,0 0,-16.57 0,-25.66 0,-42.6 5.297,0 10.598,0 15.899,0 z m -30.555,0 c 0,16.94 0,26.03 0,42.6 0,13.03 -15.899,13.03 -15.899,0 0,-16.57 0,-25.66 0,-42.6 5.297,0 10.598,0 15.899,0 z m -30.563,0 c 0,16.94 0,26.03 0,42.6 0,13.03 -15.89,13.03 -15.89,0 0,-16.57 0,-25.66 0,-42.6 5.297,0 10.59,0 15.89,0"
         inkscape:connector-curvature="0"
         id="path20"
         style="fill:#ffffff;fill-opacity:1;fill-rule:evenodd;stroke:none" /></g></g></svg>
